<svg xmlns="http://www.w3.org/2000/svg" version="1.1" xmlns:xlink="http://www.w3.org/1999/xlink" xmlns:svgjs="http://svgjs.dev/svgjs" width="1500" height="994" viewBox="0 0 1500 994"><g transform="matrix(1,0,0,1,-1.8030550887395975,-1.6032258064516327)"><svg viewBox="0 0 374 248" data-background-color="#ffffff" preserveAspectRatio="xMidYMid meet" height="994" width="1500" xmlns="http://www.w3.org/2000/svg" xmlns:xlink="http://www.w3.org/1999/xlink"><g id="tight-bounds" transform="matrix(1,0,0,1,0.44956173545907063,0.4000000000000057)"><svg viewBox="0 0 373.10087652908186 247.2" height="247.2" width="373.10087652908186"><g><svg viewBox="0 0 397.4975999999999 263.36418084598324" height="247.2" width="373.10087652908186"><g><rect width="397.4975999999999" height="5.554977064301667" x="0" y="139.80351105757228" fill="#556970" opacity="1" stroke-width="0" stroke="transparent" fill-opacity="1" class="rect-yte-0" data-fill-palette-color="primary" rx="1%" id="yte-0" data-palette-color="#556970"></rect></g><g><rect width="397.4975999999999" height="5.554977064301667" x="0" y="152.62940050970337" fill="#556970" opacity="1" stroke-width="0" stroke="transparent" fill-opacity="1" class="rect-yte-1" data-fill-palette-color="primary" rx="1%" id="yte-1" data-palette-color="#556970"></rect></g><g transform="matrix(1,0,0,1,0.9887999999999693,172.72620234966388)"><svg viewBox="0 0 395.52 90.63797849631942" height="90.63797849631942" width="395.52"><g id="textblocktransform"><svg viewBox="0 0 395.52 90.63797849631942" height="90.63797849631942" width="395.52" id="textblock"><g><svg viewBox="0 0 395.52 61.59806492679821" height="61.59806492679821" width="395.52"><g transform="matrix(1,0,0,1,0,0)"><svg width="395.52" viewBox="2.35 -35.9 235.63 36.699999999999996" height="61.59806492679821" data-palette-color="#556970"><path d="M19.25 0.8L19.25 0.8Q11.8 0.8 7.08-3.48 2.35-7.75 2.35-15.4 2.35-23.05 7.05-28.18 11.75-33.3 19.65-33.3L19.65-33.3Q22.75-33.3 24.95-32.9 27.15-32.5 28.95-32.13 30.75-31.75 31-31.7L31-31.7Q30.5-26.25 29.65-23.15L29.65-23.15 27.95-22.85Q27.3-28.15 26.25-29.7L26.25-29.7Q23.85-31 18.68-31 13.5-31 10.45-27.05 7.4-23.1 7.4-16.75 7.4-10.4 10.83-5.95 14.25-1.5 19.75-1.5L19.75-1.5Q23.7-1.5 25.78-3.33 27.85-5.15 29.05-9.3L29.05-9.3 30.75-9.05Q30.7-5.3 29.7-0.85L29.7-0.85Q24.85 0.8 19.25 0.8ZM56.7-14.05L56.7-14.05 56.7-3.3Q56.7-2.65 56.82-2.4 56.95-2.15 57.4-1.9L57.4-1.9Q58.1-1.55 59.85-1.2L59.85-1.2 60.35-1.1 60 0.4Q55.9 0 54.82 0 53.75 0 49.65 0.4L49.65 0.4 49.3-1.05Q51-1.35 51.72-1.73 52.45-2.1 52.57-2.35 52.7-2.6 52.7-3.2L52.7-3.2 52.7-13.05Q52.7-15.95 51.67-17.25 50.65-18.55 48.1-18.55 45.55-18.55 42.35-16.05L42.35-16.05 42.35-3.2Q42.35-2.55 42.47-2.33 42.6-2.1 43.1-1.85L43.1-1.85Q44.05-1.35 45.8-1.05L45.8-1.05 45.45 0.4Q41.35 0 40.27 0 39.2 0 35.1 0.4L35.1 0.4 34.7-1.1Q36.65-1.4 37.37-1.78 38.1-2.15 38.22-2.4 38.35-2.65 38.35-3.3L38.35-3.3 38.35-31.1Q38.35-32.6 37.5-32.75L37.5-32.75Q36.6-32.85 35.25-32.6L35.25-32.6 34.7-32.5 34.45-34Q35.85-34.65 38.17-35.23 40.5-35.8 42-35.9L42-35.9 42.7-35Q42.35-33.5 42.35-30.1L42.35-30.1 42.35-17.9 44.2-19.35Q47.05-21.6 50.2-21.6 53.35-21.6 55.02-19.85 56.7-18.1 56.7-14.05ZM67.7-5.6Q67.7-4.2 68.59-3.2 69.5-2.2 71.2-2.2 72.9-2.2 75.5-4.2L75.5-4.2 75.5-9.9 71.65-9.2Q67.7-8.55 67.7-5.6L67.7-5.6ZM79.5-14.3L79.5-14.3 79.5-4.1Q79.5-2.3 81.45-2.3L81.45-2.3 82.8-2.35 83.2-0.9Q80.75-0.35 78 0.8L78 0.8Q76.15-0.45 75.65-2.55L75.65-2.55Q73.4-0.65 71.97 0.08 70.55 0.8 69.15 0.8L69.15 0.8Q66.59 0.8 65.07-0.8 63.55-2.4 63.55-5.13 63.55-7.85 65.5-9.18 67.45-10.5 70.9-10.85L70.9-10.85 75.5-11.35 75.5-13.6Q75.5-16.45 74.65-17.9 73.8-19.35 71.57-19.35 69.34-19.35 68.25-18.75L68.25-18.75Q67.95-17.7 67.95-14.15L67.95-14.15 65.84-13.55Q64.75-17.2 64.59-19.15L64.59-19.15Q70-21.6 72.4-21.6L72.4-21.6Q76.09-21.6 77.8-19.83 79.5-18.05 79.5-14.3ZM92.34-18.5L92.34-6.2Q92.34-3.85 93.19-3.05 94.04-2.25 95.77-2.25 97.49-2.25 99.84-3.8L99.84-3.8 100.59-2.65Q96.39 0.8 93.64 0.8L93.64 0.8Q88.34 0.8 88.34-5.45L88.34-5.45 88.34-18.6 85.44-18.6 85.19-19.9 88.34-20.8 88.34-24.15 92.34-26 92.34-20.5 98.74-20.95 98.34-18.3 92.34-18.5ZM109.14-18.5L109.14-6.2Q109.14-3.85 109.99-3.05 110.84-2.25 112.56-2.25 114.29-2.25 116.64-3.8L116.64-3.8 117.39-2.65Q113.19 0.8 110.44 0.8L110.44 0.8Q105.14 0.8 105.14-5.45L105.14-5.45 105.14-18.6 102.24-18.6 101.99-19.9 105.14-20.8 105.14-24.15 109.14-26 109.14-20.5 115.54-20.95 115.14-18.3 109.14-18.5ZM131.44-2.35L131.44-2.35Q134.44-2.35 137.44-4.5L137.44-4.5 138.24-3.4Q133.69 0.8 129.46 0.8 125.24 0.8 122.51-2.13 119.79-5.05 119.79-9.9 119.79-14.75 122.54-18.18 125.29-21.6 129.66-21.6 134.04-21.6 136.19-18.88 138.34-16.15 138.34-11.5L138.34-11.5 124.24-10.5Q124.64-2.35 131.44-2.35ZM129.39-19.55L129.39-19.55Q126.74-19.55 125.49-17.43 124.24-15.3 124.24-12.3L124.24-12.3 133.84-13.5Q133.84-19.55 129.39-19.55ZM154.09-18.2L154.09-18.2Q152.19-18.2 149.53-14.45L149.53-14.45 149.53-3.35Q149.53-2.7 149.74-2.43 149.94-2.15 150.49-1.95L150.49-1.95Q151.34-1.6 153.59-1.4L153.59-1.4 154.34-1.3 153.99 0.4Q149.49 0 147.53 0 145.59 0 142.28 0.4L142.28 0.4 141.88-1.1Q143.84-1.4 144.56-1.78 145.28-2.15 145.41-2.4 145.53-2.65 145.53-3.3L145.53-3.3 145.53-16.8Q145.53-18.3 144.69-18.45L144.69-18.45Q143.84-18.55 142.49-18.3L142.49-18.3 141.94-18.2 141.69-19.7Q145.19-21.25 148.28-21.6L148.28-21.6 149.09-20.7Q149.09-19.1 149.53-16.85L149.53-16.85 151.19-18.95Q153.34-21.6 155.69-21.6L155.69-21.6Q156.69-21.6 159.24-20.65L159.24-20.65Q158.53-16.7 157.53-14.2L157.53-14.2 156.19-14.1Q156.19-15.9 155.66-17.05 155.13-18.2 154.09-18.2ZM163.88-32.5L163.88-32.5 173.18-32.9Q184.78-32.9 184.78-25.5L184.78-25.5Q184.78-22.25 182.88-20.63 180.98-19 178.43-18.45L178.43-18.45 178.43-18.1Q181.88-17.9 184.48-15.78 187.08-13.65 187.08-9.2 187.08-4.75 183.53-2.18 179.98 0.4 174.68 0.4L174.68 0.4 167.73 0Q165.43 0 162.08 0.4L162.08 0.4 161.73-1.25Q163.73-1.5 164.61-1.88 165.48-2.25 165.48-3.45L165.48-3.45 165.48-28.9Q165.48-30.1 164.68-30.45L164.68-30.45Q164.03-30.75 162.23-31L162.23-31 161.73-31.1 162.08-32.65Q162.53-32.5 163.88-32.5ZM174.28-16.2L169.93-16.2 169.93-4.05Q169.93-2.75 171.38-2.18 172.83-1.6 174.53-1.6L174.53-1.6Q177.73-1.6 179.88-3.48 182.03-5.35 182.03-9L182.03-9Q182.03-16.2 174.28-16.2L174.28-16.2ZM169.93-30.6L169.93-18.3 173.08-18.3Q176.28-18.3 178.16-20.05 180.03-21.8 180.03-24.88 180.03-27.95 178.21-29.45 176.38-30.95 173.18-30.95L173.18-30.95Q171.33-30.95 169.93-30.6L169.93-30.6ZM201.23 0.8Q196.38 0.8 193.68-2.1 190.98-5 190.98-10.03 190.98-15.05 193.86-18.32 196.73-21.6 201.56-21.6 206.38-21.6 209.13-18.68 211.88-15.75 211.88-10.78 211.88-5.8 208.98-2.5 206.08 0.8 201.23 0.8ZM195.43-10.95L195.43-10.95Q195.43-6.25 197.18-3.75 198.93-1.25 202.08-1.25L202.08-1.25Q207.38-1.25 207.38-9.85L207.38-9.85Q207.38-14.5 205.61-17.03 203.83-19.55 200.68-19.55L200.68-19.55Q195.43-19.55 195.43-10.95ZM223.68-1.1L223.33 0.4Q220.73 0 218.8 0 216.88 0 214.48 0.4L214.48 0.4 214.13-1.1Q215.78-1.2 217.83-3.2L217.83-3.2 224.23-10.5 218.33-17.9Q217.53-18.9 216.88-19.23 216.23-19.55 215.18-19.65L215.18-19.65 214.98-21.15Q217.18-20.8 220.23-20.8 223.28-20.8 225.38-21.15L225.38-21.15 225.28-19.65Q224.18-19.5 223.6-19.33 223.03-19.15 222.85-18.7 222.68-18.25 223.08-17.7L223.08-17.7 227.03-12.7 230.98-17.65Q231.33-18.15 231.08-18.63 230.83-19.1 230.23-19.25L230.23-19.25 228.48-19.6 228.38-21.1Q230.23-20.8 232.75-20.8 235.28-20.8 237.08-21.1L237.08-21.1 236.93-19.6Q236.43-19.6 236.2-19.5 235.98-19.4 235.85-19.35 235.73-19.3 235.53-19.18 235.33-19.05 235.25-19 235.18-18.95 234.98-18.7L234.98-18.7Q234.58-18.35 234.28-18.03 233.98-17.7 233.88-17.6L233.88-17.6 228.33-11.1 234.83-3Q236.38-1.2 237.98-1.1L237.98-1.1 237.63 0.4Q235.13 0 232.55 0 229.98 0 227.48 0.4L227.48 0.4 227.13-1.1Q228.73-1.4 229.33-1.6 229.93-1.8 230.13-2.27 230.33-2.75 229.93-3.4L229.93-3.4 225.53-8.9 220.98-3.4Q220.53-2.75 220.68-2.25 220.83-1.75 221.33-1.6L221.33-1.6 223.68-1.1Z" opacity="1" transform="matrix(1,0,0,1,0,0)" fill="#556970" class="wordmark-text-0" data-fill-palette-color="primary" id="text-0"></path></svg></g></svg></g><g transform="matrix(1,0,0,1,25.708799999999997,76.13988970245703)"><svg viewBox="0 0 344.1024 14.498088793862404" height="14.498088793862404" width="344.1024"><g transform="matrix(1,0,0,1,0,0)"><svg width="344.1024" viewBox="0.15 -32.7 795.03 33.5" height="14.498088793862404" data-palette-color="#556970"><path d="M11.5 0.7L11.5 0.7Q9.8 0.7 8.88-0.28 7.95-1.25 7.85-4L7.85-4Q7.8-6.95 7.55-9.85 7.3-12.75 6.75-15.35L6.75-15.35Q6-19.15 4.7-22.2 3.4-25.25 1.05-27.45L1.05-27.45Q0.65-27.85 0.4-28.2 0.15-28.55 0.15-29L0.15-29Q0.15-30.05 1.25-31.03 2.35-32 3.85-32L3.85-32Q5.6-32 6.85-30.5 8.1-29 9-26.3L9-26.3Q10.05-23.55 10.65-20.3 11.25-17.05 11.48-13.68 11.7-10.3 11.7-7.15L11.7-7.15Q11.7-6.05 12-5.7 12.3-5.35 13.05-5.35L13.05-5.35Q14.7-5.35 16.32-6.35 17.95-7.35 19.28-9.08 20.6-10.8 21.4-12.9 22.2-15 22.25-17.15L22.25-17.15Q22.3-19.4 21.48-21.53 20.65-23.65 19.35-25.15L19.35-25.15Q19-25.55 18.82-25.88 18.65-26.2 18.65-26.55L18.65-26.55Q18.65-27.35 19.3-28.1 19.95-28.85 20.8-29.35 21.65-29.85 22.25-29.85L22.25-29.85Q23.5-29.85 24.38-28.03 25.25-26.2 25.85-23.6L25.85-23.6Q26.7-20.3 27.05-16.2 27.4-12.1 27.4-7.55L27.4-7.55Q27.4-6.3 27.65-5.85 27.9-5.4 28.75-5.4L28.75-5.4Q30.55-5.4 32.25-6.7 33.95-8 35.27-10.28 36.6-12.55 37.38-15.48 38.15-18.4 38.15-21.65L38.15-21.65Q38.15-24.1 37.77-25.63 37.4-27.15 37.05-27.8L37.05-27.8Q36.55-28.75 36.55-29.4L36.55-29.4Q36.55-30.15 37.23-30.83 37.9-31.5 38.85-31.95 39.8-32.4 40.5-32.4L40.5-32.4Q41.6-32.4 42.08-31.48 42.55-30.55 42.68-29.2 42.8-27.85 42.8-26.65L42.8-26.65Q42.8-23.2 42.08-19.43 41.35-15.65 40-12.08 38.65-8.5 36.77-5.63 34.9-2.75 32.55-1.03 30.2 0.7 27.5 0.7L27.5 0.7Q25.7 0.7 24.85-0.1 24-0.9 23.75-2.35 23.5-3.8 23.5-5.75L23.5-5.75Q23.5-6.9 23.53-7.93 23.55-8.95 23.55-9.8L23.55-9.8Q21.25-4.65 18-1.98 14.75 0.7 11.5 0.7ZM48.6 0.55L48.6 0.55Q46.65 0.55 46.65-0.85L46.65-0.85Q46.65-1.25 46.8-1.9L46.8-1.9Q47.85-7.15 48.3-12.55L48.3-12.55Q47.55-12.35 47.1-12.35L47.1-12.35Q46.6-12.35 46.6-13.25L46.6-13.25Q46.6-14.45 47.2-15.95 47.8-17.45 48.6-18.15L48.6-18.15Q48.6-20.8 48.47-22.58 48.35-24.35 48-25.7 47.65-27.05 46.9-28.3L46.9-28.3Q46.45-29 46.45-29.35L46.45-29.35Q46.45-30 47.12-30.63 47.8-31.25 48.77-31.7 49.75-32.15 50.6-32.15L50.6-32.15Q52.2-32.15 52.72-30.73 53.25-29.3 53.25-27L53.25-27Q53.2-25.9 53.05-23.85 52.9-21.8 52.6-18.8L52.6-18.8Q55.75-19 58.75-19.1 61.75-19.2 64.5-19.2L64.5-19.2 68.2-19.2 68.2-20.6Q68.2-24.95 67.05-28.25L67.05-28.25Q66.7-29.1 66.7-29.45L66.7-29.45Q66.7-30.45 67.97-31.3 69.25-32.15 70.65-32.15L70.65-32.15Q72.2-32.15 72.72-31.03 73.25-29.9 73.25-27.85L73.25-27.85Q73.25-26.5 73-24.2 72.75-21.9 72.3-18.6L72.3-18.6Q71.85-15.1 71.6-12.83 71.35-10.55 71.35-8.8L71.35-8.8Q71.35-5.5 73.05-3.9L73.05-3.9Q73.7-3.15 73.7-2.4L73.7-2.4Q73.7-1.25 72.35-0.38 71 0.5 69.1 0.5L69.1 0.5Q67.9 0.5 67.2-0.15 66.5-0.8 66.5-2.95L66.5-2.95Q66.5-3.7 66.65-5.2 66.8-6.7 67.15-9L67.15-9Q67.35-10.45 67.52-11.8 67.7-13.15 67.8-14.35L67.8-14.35Q67.45-13.9 67.12-13.65 66.8-13.4 66.25-13.45L66.25-13.45Q64.45-13.55 62.67-13.63 60.9-13.7 59.15-13.7L59.15-13.7Q55.5-13.7 52.2-13.25L52.2-13.25Q52.15-12.9 52.12-12.08 52.1-11.25 52.1-10.7L52.1-10.7Q52.1-8.55 52.3-6.25 52.5-3.95 52.7-2.15L52.7-2.15Q52.85-0.9 51.5-0.18 50.15 0.55 48.6 0.55ZM88.05 0.65L88.05 0.65Q83.3 0.65 81.02-0.88 78.75-2.4 78.75-6.6L78.75-6.6Q78.75-7.45 78.87-8.65 79-9.85 79.25-11.55L79.25-11.55Q79.64-14 79.84-15.93 80.05-17.85 80.05-20.15L80.05-20.15Q80.05-21.65 79.97-23.05 79.89-24.45 79.69-25.7L79.69-25.7Q78.94-25.55 78.69-25.55L78.69-25.55Q78.3-25.55 78.14-25.73 78-25.9 78-26.4L78-26.4Q78-27.45 78.25-28.48 78.5-29.5 78.94-30.15L78.94-30.15Q79.8-31.35 81.55-31.55L81.55-31.55Q82.89-31.7 84.87-31.85 86.84-32 88.92-32.08 91-32.15 92.64-32.15L92.64-32.15Q97.25-32.15 98.09-31.95L98.09-31.95Q99.39-31.75 99.39-30.55L99.39-30.55Q99.39-29.05 98.34-27.8L98.34-27.8Q97.8-27.05 97.25-26.73 96.69-26.4 95.69-26.45L95.69-26.45Q93.5-26.6 91.84-26.65 90.19-26.7 89.55-26.7L89.55-26.7Q88.39-26.7 87.17-26.65 85.94-26.6 84.69-26.5L84.69-26.5Q84.69-24.75 84.55-22.75 84.39-20.75 84.14-18.55L84.14-18.55Q86.44-18.7 89.34-18.78 92.25-18.85 94.5-18.85L94.5-18.85Q95.5-18.85 95.87-18.65 96.25-18.45 96.25-17.6L96.25-17.6Q96.25-16.8 95.82-15.83 95.39-14.85 94.69-14.15L94.69-14.15Q94.39-13.85 94.05-13.68 93.69-13.5 93.09-13.55L93.09-13.55Q90.94-13.65 88.22-13.7 85.5-13.75 83.44-13.7L83.44-13.7Q83.25-12.55 83.14-11.6 83.05-10.65 83.05-9.9L83.05-9.9Q83.05-7.15 84.44-6.05 85.84-4.95 89.05-4.95L89.05-4.95Q91-4.95 92.82-5.3 94.64-5.65 96.55-6.6L96.55-6.6Q97.25-7 97.59-7L97.59-7Q98.14-7 98.67-6.23 99.19-5.45 99.19-4.55L99.19-4.55Q99.19-3.45 98.37-2.48 97.55-1.5 96.19-0.8L96.19-0.8Q94.64-0.1 92.5 0.28 90.34 0.65 88.05 0.65ZM105.74 0.5L105.74 0.5Q105.14 0.5 104.52 0.3 103.89 0.1 103.49-0.65 103.09-1.4 103.09-2.95L103.09-2.95Q103.09-3.95 103.27-5.53 103.44-7.1 103.64-8.6L103.64-8.6Q104.04-11.1 104.37-14.1 104.69-17.1 104.69-20.05L104.69-20.05Q104.69-21.1 104.64-22.25 104.59-23.4 104.44-24.45L104.44-24.45Q104.14-24.3 103.77-24.18 103.39-24.05 103.14-24.05L103.14-24.05Q102.64-24.05 102.47-24.58 102.29-25.1 102.29-25.8L102.29-25.8Q102.29-27.4 103.07-28.38 103.84-29.35 105.39-30.15L105.39-30.15Q107.44-31.3 109.77-31.83 112.09-32.35 114.19-32.35L114.19-32.35Q117.29-32.35 119.69-31.25 122.09-30.15 123.44-28.15 124.79-26.15 124.79-23.35L124.79-23.35Q124.79-20.45 123.42-18.2 122.04-15.95 119.92-14.53 117.79-13.1 115.59-12.65L115.59-12.65Q116.39-11.4 117.32-10.15 118.24-8.9 119.19-7.9L119.19-7.9Q122.04-4.95 124.99-4.95L124.99-4.95Q125.79-4.95 126.39-5.05L126.39-5.05Q126.69-5.1 126.92-4.83 127.14-4.55 127.14-3.75L127.14-3.75Q127.14-2.8 126.74-1.83 126.34-0.85 125.39-0.2 124.44 0.45 122.79 0.45L122.79 0.45Q120.84 0.45 119.07-0.85 117.29-2.15 115.79-4.17 114.29-6.2 113.12-8.45 111.94-10.7 111.14-12.6L111.14-12.6Q110.94-13.15 110.79-13.68 110.64-14.2 110.64-14.7L110.64-14.7Q110.64-15.55 111.19-16.1L111.19-16.1Q111.59-16.5 112.32-16.65 113.04-16.8 114.44-16.8L114.44-16.8Q117.09-16.8 118.74-18.25 120.39-19.7 120.39-22L120.39-22Q120.39-24.5 118.52-25.65 116.64-26.8 113.94-26.8L113.94-26.8Q111.74-26.8 109.34-26.1L109.34-26.1Q109.19-22.85 108.64-18.65L108.64-18.65Q108.34-16.15 108.12-13.7 107.89-11.25 107.89-9.25L107.89-9.25Q107.89-7.5 108.22-6.18 108.54-4.85 109.54-3.9L109.54-3.9Q110.24-3.2 110.24-2.4L110.24-2.4Q110.24-1.3 108.99-0.4 107.74 0.5 105.74 0.5ZM140.24 0.65L140.24 0.65Q135.49 0.65 133.22-0.88 130.94-2.4 130.94-6.6L130.94-6.6Q130.94-7.45 131.06-8.65 131.19-9.85 131.44-11.55L131.44-11.55Q131.84-14 132.04-15.93 132.24-17.85 132.24-20.15L132.24-20.15Q132.24-21.65 132.16-23.05 132.09-24.45 131.89-25.7L131.89-25.7Q131.14-25.55 130.89-25.55L130.89-25.55Q130.49-25.55 130.34-25.73 130.19-25.9 130.19-26.4L130.19-26.4Q130.19-27.45 130.44-28.48 130.69-29.5 131.14-30.15L131.14-30.15Q131.99-31.35 133.74-31.55L133.74-31.55Q135.09-31.7 137.06-31.85 139.04-32 141.11-32.08 143.19-32.15 144.84-32.15L144.84-32.15Q149.44-32.15 150.29-31.95L150.29-31.95Q151.59-31.75 151.59-30.55L151.59-30.55Q151.59-29.05 150.54-27.8L150.54-27.8Q149.99-27.05 149.44-26.73 148.89-26.4 147.89-26.45L147.89-26.45Q145.69-26.6 144.04-26.65 142.39-26.7 141.74-26.7L141.74-26.7Q140.59-26.7 139.36-26.65 138.14-26.6 136.89-26.5L136.89-26.5Q136.89-24.75 136.74-22.75 136.59-20.75 136.34-18.55L136.34-18.55Q138.64-18.7 141.54-18.78 144.44-18.85 146.69-18.85L146.69-18.85Q147.69-18.85 148.06-18.65 148.44-18.45 148.44-17.6L148.44-17.6Q148.44-16.8 148.01-15.83 147.59-14.85 146.89-14.15L146.89-14.15Q146.59-13.85 146.24-13.68 145.89-13.5 145.29-13.55L145.29-13.55Q143.14-13.65 140.41-13.7 137.69-13.75 135.64-13.7L135.64-13.7Q135.44-12.55 135.34-11.6 135.24-10.65 135.24-9.9L135.24-9.9Q135.24-7.15 136.64-6.05 138.04-4.95 141.24-4.95L141.24-4.95Q143.19-4.95 145.01-5.3 146.84-5.65 148.74-6.6L148.74-6.6Q149.44-7 149.79-7L149.79-7Q150.34-7 150.87-6.23 151.39-5.45 151.39-4.55L151.39-4.55Q151.39-3.45 150.56-2.48 149.74-1.5 148.39-0.8L148.39-0.8Q146.84-0.1 144.69 0.28 142.54 0.65 140.24 0.65ZM181.84 0.65L181.84 0.65Q178.28 0.65 175.61-0.95 172.94-2.55 171.48-5.5 170.03-8.45 170.03-12.5L170.03-12.5Q170.03-16.35 171.28-19.9 172.53-23.45 174.88-26.25 177.23-29.05 180.53-30.7 183.84-32.35 187.99-32.35L187.99-32.35Q191.09-32.35 193.09-31.4 195.09-30.45 195.09-28.6L195.09-28.6Q195.09-27.7 194.61-26.83 194.13-25.95 193.38-25.35 192.63-24.75 191.84-24.75L191.84-24.75Q191.34-24.75 191.03-25L191.03-25Q189.69-25.9 188.38-26.33 187.09-26.75 185.38-26.75L185.38-26.75Q181.84-26.75 179.38-25.13 176.94-23.5 175.66-20.85 174.38-18.2 174.38-15.1L174.38-15.1Q174.38-12.1 175.53-9.8 176.69-7.5 178.73-6.2 180.78-4.9 183.53-4.9L183.53-4.9Q185.73-4.9 187.81-5.78 189.88-6.65 191.49-8.2L191.49-8.2Q192.19-8.85 192.88-8.85L192.88-8.85Q193.49-8.85 193.74-8.35 193.99-7.85 193.99-7.35L193.99-7.35Q193.99-6.5 193.49-5.43 192.99-4.35 191.94-3.3L191.94-3.3Q190.09-1.45 187.38-0.4 184.69 0.65 181.84 0.65ZM209.38 0.65L209.38 0.65Q204.23 0.65 201.16-2.38 198.08-5.4 198.08-11.3L198.08-11.3Q198.08-13.95 198.81-16.8 199.53-19.65 201.23-22.45L201.23-22.45Q200.28-21.6 199.43-21.6L199.43-21.6Q197.98-21.6 197.98-23.9L197.98-23.9Q197.98-25.55 198.68-26.55 199.38-27.55 200.03-28.15L200.03-28.15Q201.13-29.1 202.83-30.08 204.53-31.05 206.83-31.7 209.13-32.35 211.98-32.35L211.98-32.35Q218.68-32.35 222.06-28.58 225.43-24.8 225.43-18.1L225.43-18.1Q225.43-14.15 224.28-10.75 223.13-7.35 221.01-4.8 218.88-2.25 215.93-0.8 212.98 0.65 209.38 0.65ZM211.13-4.95L211.13-4.95Q213.63-4.95 216.06-6.1 218.48-7.25 220.06-9.78 221.63-12.3 221.63-16.35L221.63-16.35Q221.63-20.15 220.18-22.43 218.73-24.7 216.51-25.73 214.28-26.75 211.83-26.75L211.83-26.75Q209.98-26.75 208.51-26.28 207.03-25.8 205.88-25.25L205.88-25.25Q204.58-23.25 203.43-20.38 202.28-17.5 202.28-14.3L202.28-14.3Q202.28-11.1 203.53-9.03 204.78-6.95 206.81-5.95 208.83-4.95 211.13-4.95ZM232.38 0.5L232.38 0.5Q231.28 0.5 230.5-0.08 229.73-0.65 229.73-2.8L229.73-2.8Q229.73-3.9 229.96-5.48 230.18-7.05 230.43-8.75L230.43-8.75Q230.83-11.15 231.23-14.03 231.63-16.9 231.63-19.75L231.63-19.75Q231.63-22.75 231.43-24.35 231.23-25.95 230.98-26.95L230.98-26.95Q230.88-27.5 230.81-27.95 230.73-28.4 230.73-28.95L230.73-28.95Q230.73-30.55 231.75-31.38 232.78-32.2 234.03-32.2L234.03-32.2Q235.28-32.2 236.13-31.58 236.98-30.95 237.63-30.25L237.63-30.25Q241.93-25.4 245.38-20.08 248.83-14.75 251.13-9.15L251.13-9.15Q251.38-8.75 251.58-8.75L251.58-8.75Q251.88-8.75 251.98-9.15L251.98-9.15Q252.88-15 252.88-19.75L252.88-19.75Q252.88-22.6 252.66-24.28 252.43-25.95 252.11-26.88 251.78-27.8 251.48-28.35L251.48-28.35Q251.33-28.7 251.23-28.98 251.13-29.25 251.13-29.5L251.13-29.5Q251.13-30.1 251.75-30.73 252.38-31.35 253.28-31.75 254.18-32.15 255.03-32.15L255.03-32.15Q256.23-32.15 256.78-31.35 257.33-30.55 257.5-29.38 257.68-28.2 257.68-27L257.68-27Q257.68-25.65 257.43-23.5 257.18-21.35 256.86-18.88 256.53-16.4 256.31-14 256.08-11.6 256.08-9.75L256.08-9.75Q256.08-8.7 256.16-7.7 256.23-6.7 256.33-5.75L256.33-5.75Q256.48-4.5 256.48-3.55L256.48-3.55Q256.48-1.7 255.56-0.63 254.63 0.45 253.03 0.45L253.03 0.45Q251.93 0.45 250.86-0.2 249.78-0.85 249.23-2.3L249.23-2.3Q247.08-7.8 243.96-13.03 240.83-18.25 237.43-22.05L237.43-22.05Q236.88-22.55 236.53-22.55L236.53-22.55Q236.03-22.55 235.88-21.45L235.88-21.45Q235.63-19.55 235.38-17.3 235.13-15.05 234.98-12.93 234.83-10.8 234.83-9.3L234.83-9.3Q234.83-7.6 235.13-6.38 235.43-5.15 236.03-4L236.03-4Q236.58-3 236.58-2.2L236.58-2.2Q236.58-1.25 235.48-0.38 234.38 0.5 232.38 0.5ZM271.83 0.8L271.83 0.8Q270.13 0.8 269.2-0.33 268.28-1.45 268.13-4.25L268.13-4.25Q268.03-7.2 267.65-10.13 267.28-13.05 266.63-15.6L266.63-15.6Q265.78-19.3 264.35-22.43 262.93-25.55 260.43-27.55L260.43-27.55Q260.03-27.9 259.78-28.23 259.53-28.55 259.53-29.05L259.53-29.05Q259.53-30.15 260.65-31.15 261.78-32.15 263.28-32.15L263.28-32.15Q265.03-32.15 266.28-30.7 267.53-29.25 268.53-26.65L268.53-26.65Q270.23-22.55 271-17.48 271.78-12.4 271.88-7.7L271.88-7.7Q271.93-6.3 272.28-5.83 272.63-5.35 273.48-5.35L273.48-5.35Q275.28-5.35 277-6.75 278.73-8.15 280.15-10.55 281.58-12.95 282.43-16 283.28-19.05 283.28-22.4L283.28-22.4Q283.28-24.45 283-25.73 282.73-27 282.38-27.75L282.38-27.75Q281.93-28.75 281.93-29.35L281.93-29.35Q281.93-30.1 282.63-30.75 283.33-31.4 284.25-31.83 285.18-32.25 285.93-32.25L285.93-32.25Q286.93-32.25 287.38-31.53 287.83-30.8 287.98-29.7 288.13-28.6 288.13-27.45L288.13-27.45Q288.13-24 287.33-20.15 286.53-16.3 285.05-12.58 283.58-8.85 281.55-5.83 279.53-2.8 277.08-1 274.63 0.8 271.83 0.8ZM301.93 0.65L301.93 0.65Q297.18 0.65 294.9-0.88 292.63-2.4 292.63-6.6L292.63-6.6Q292.63-7.45 292.75-8.65 292.88-9.85 293.13-11.55L293.13-11.55Q293.53-14 293.73-15.93 293.93-17.85 293.93-20.15L293.93-20.15Q293.93-21.65 293.85-23.05 293.78-24.45 293.58-25.7L293.58-25.7Q292.83-25.55 292.58-25.55L292.58-25.55Q292.18-25.55 292.03-25.73 291.88-25.9 291.88-26.4L291.88-26.4Q291.88-27.45 292.13-28.48 292.38-29.5 292.83-30.15L292.83-30.15Q293.68-31.35 295.43-31.55L295.43-31.55Q296.78-31.7 298.75-31.85 300.73-32 302.8-32.08 304.88-32.15 306.53-32.15L306.53-32.15Q311.13-32.15 311.98-31.95L311.98-31.95Q313.28-31.75 313.28-30.55L313.28-30.55Q313.28-29.05 312.23-27.8L312.23-27.8Q311.68-27.05 311.13-26.73 310.58-26.4 309.58-26.45L309.58-26.45Q307.38-26.6 305.73-26.65 304.08-26.7 303.43-26.7L303.43-26.7Q302.28-26.7 301.05-26.65 299.83-26.6 298.58-26.5L298.58-26.5Q298.58-24.75 298.43-22.75 298.28-20.75 298.03-18.55L298.03-18.55Q300.33-18.7 303.23-18.78 306.13-18.85 308.38-18.85L308.38-18.85Q309.38-18.85 309.75-18.65 310.13-18.45 310.13-17.6L310.13-17.6Q310.13-16.8 309.7-15.83 309.28-14.85 308.58-14.15L308.58-14.15Q308.28-13.85 307.93-13.68 307.58-13.5 306.98-13.55L306.98-13.55Q304.83-13.65 302.1-13.7 299.38-13.75 297.33-13.7L297.33-13.7Q297.13-12.55 297.03-11.6 296.93-10.65 296.93-9.9L296.93-9.9Q296.93-7.15 298.33-6.05 299.73-4.95 302.93-4.95L302.93-4.95Q304.88-4.95 306.7-5.3 308.53-5.65 310.43-6.6L310.43-6.6Q311.13-7 311.48-7L311.48-7Q312.03-7 312.55-6.23 313.08-5.45 313.08-4.55L313.08-4.55Q313.08-3.45 312.25-2.48 311.43-1.5 310.08-0.8L310.08-0.8Q308.53-0.1 306.38 0.28 304.23 0.65 301.93 0.65ZM319.62 0.5L319.62 0.5Q319.02 0.5 318.4 0.3 317.77 0.1 317.37-0.65 316.97-1.4 316.97-2.95L316.97-2.95Q316.97-3.95 317.15-5.53 317.32-7.1 317.52-8.6L317.52-8.6Q317.92-11.1 318.25-14.1 318.57-17.1 318.57-20.05L318.57-20.05Q318.57-21.1 318.52-22.25 318.47-23.4 318.32-24.45L318.32-24.45Q318.02-24.3 317.65-24.18 317.27-24.05 317.02-24.05L317.02-24.05Q316.52-24.05 316.35-24.58 316.17-25.1 316.17-25.8L316.17-25.8Q316.17-27.4 316.95-28.38 317.72-29.35 319.27-30.15L319.27-30.15Q321.32-31.3 323.65-31.83 325.97-32.35 328.07-32.35L328.07-32.35Q331.17-32.35 333.57-31.25 335.97-30.15 337.32-28.15 338.67-26.15 338.67-23.35L338.67-23.35Q338.67-20.45 337.3-18.2 335.92-15.95 333.8-14.53 331.67-13.1 329.47-12.65L329.47-12.65Q330.27-11.4 331.2-10.15 332.12-8.9 333.07-7.9L333.07-7.9Q335.92-4.95 338.87-4.95L338.87-4.95Q339.67-4.95 340.27-5.05L340.27-5.05Q340.57-5.1 340.8-4.83 341.02-4.55 341.02-3.75L341.02-3.75Q341.02-2.8 340.62-1.83 340.22-0.85 339.27-0.2 338.32 0.45 336.67 0.45L336.67 0.45Q334.72 0.45 332.95-0.85 331.17-2.15 329.67-4.17 328.17-6.2 327-8.45 325.82-10.7 325.02-12.6L325.02-12.6Q324.82-13.15 324.67-13.68 324.52-14.2 324.52-14.7L324.52-14.7Q324.52-15.55 325.07-16.1L325.07-16.1Q325.47-16.5 326.2-16.65 326.92-16.8 328.32-16.8L328.32-16.8Q330.97-16.8 332.62-18.25 334.27-19.7 334.27-22L334.27-22Q334.27-24.5 332.4-25.65 330.52-26.8 327.82-26.8L327.82-26.8Q325.62-26.8 323.22-26.1L323.22-26.1Q323.07-22.85 322.52-18.65L322.52-18.65Q322.22-16.15 322-13.7 321.77-11.25 321.77-9.25L321.77-9.25Q321.77-7.5 322.1-6.18 322.42-4.85 323.42-3.9L323.42-3.9Q324.12-3.2 324.12-2.4L324.12-2.4Q324.12-1.3 322.87-0.4 321.62 0.5 319.62 0.5ZM351.72 0.65L351.72 0.65Q349.27 0.65 347.19-0.08 345.12-0.8 343.87-2.1 342.62-3.4 342.62-5.15L342.62-5.15Q342.62-6.3 343.17-7.18 343.72-8.05 344.67-8.05L344.67-8.05Q345.27-8.05 345.92-7.6L345.92-7.6Q347.17-6.5 349.15-5.68 351.12-4.85 353.37-4.85L353.37-4.85Q356.32-4.85 358.19-6.03 360.07-7.2 360.07-9.2L360.07-9.2Q360.07-11.1 358.32-11.95 356.57-12.8 353.47-13.55L353.47-13.55Q351.17-14.1 349.05-14.95 346.92-15.8 345.55-17.32 344.17-18.85 344.17-21.4L344.17-21.4Q344.17-23.35 345.02-25.28 345.87-27.2 347.52-28.8 349.17-30.4 351.52-31.38 353.87-32.35 356.82-32.35L356.82-32.35Q359.02-32.35 360.85-31.85 362.67-31.35 363.75-30.45 364.82-29.55 364.82-28.25L364.82-28.25Q364.82-27.25 364.27-26.5 363.72-25.75 362.97-25.33 362.22-24.9 361.67-24.9L361.67-24.9Q361.17-24.9 360.32-25.35L360.32-25.35Q358.92-26.1 357.19-26.53 355.47-26.95 354.17-26.95L354.17-26.95Q351.72-26.95 350.19-25.88 348.67-24.8 348.67-23.35L348.67-23.35Q348.67-21.75 350.6-20.68 352.52-19.6 357.52-18.4L357.52-18.4Q360.92-17.5 362.82-15.93 364.72-14.35 364.72-10.95L364.72-10.95Q364.72-7.9 363.1-5.25 361.47-2.6 358.55-0.98 355.62 0.65 351.72 0.65ZM392.32 0.55L392.32 0.55Q390.77 0.55 389.69-0.78 388.62-2.1 387.62-5.15L387.62-5.15Q387.12-6.65 386.79-8.08 386.47-9.5 386.32-10.85L386.32-10.85Q385.67-9.85 385.14-9.53 384.62-9.2 383.62-9.2L383.62-9.2Q381.17-9.2 378.42-9.28 375.67-9.35 373.52-9.4L373.52-9.4Q373.42-8.5 373.34-7.58 373.27-6.65 373.27-5.75L373.27-5.75Q373.27-4.95 373.34-4.15 373.42-3.35 373.47-2.6L373.47-2.6Q373.62-1.2 372.37-0.35 371.12 0.5 369.27 0.5L369.27 0.5Q367.67 0.5 367.67-0.9L367.67-0.9Q367.67-1.75 368.12-3.45L368.12-3.45Q368.37-4.6 368.52-5.43 368.67-6.25 368.67-6.75L368.67-6.75Q368.67-8.15 367.82-8.65L367.82-8.65Q367.12-9.05 367.12-9.7L367.12-9.7Q367.12-10.3 367.39-11.15 367.67-12 368.12-12.73 368.57-13.45 368.97-13.75L368.97-13.75Q369.32-13.95 369.82-14.1 370.32-14.25 371.07-14.3L371.07-14.3Q373.02-19.9 375.44-23.98 377.87-28.05 380.62-30.28 383.37-32.5 386.22-32.5L386.22-32.5Q387.97-32.5 388.77-31.33 389.57-30.15 389.57-27.4L389.57-27.4 389.57-25.15Q389.57-20.1 390.32-15.85 391.07-11.6 392.17-8.95L392.17-8.95Q393.27-6.15 395.22-4.35L395.22-4.35Q395.82-3.85 396.02-3.48 396.22-3.1 396.22-2.7L396.22-2.7Q396.22-1.95 395.64-1.2 395.07-0.45 394.17 0.05 393.27 0.55 392.32 0.55ZM375.02-14.6L375.02-14.6Q377.47-14.7 379.32-14.78 381.17-14.85 382.42-14.85L382.42-14.85 385.92-14.85Q385.82-16.25 385.74-17.8 385.67-19.35 385.67-21.05L385.67-21.05 385.67-23.95Q385.67-25.4 385.34-25.88 385.02-26.35 384.12-26.35L384.12-26.35Q381.67-26.35 379.22-23.15 376.77-19.95 375.02-14.6ZM406.17 0.5L406.17 0.5Q405.56 0.5 404.94 0.3 404.31 0.1 403.92-0.65 403.51-1.4 403.51-2.95L403.51-2.95Q403.51-4.05 403.69-5.65 403.87-7.25 404.17-9.1L404.17-9.1Q404.56-11.6 404.84-14.38 405.12-17.15 405.12-20.05L405.12-20.05Q405.12-22.4 404.89-24.13 404.67-25.85 404.31-26.8L404.31-26.8Q402.42-26.75 400.72-26.55 399.01-26.35 397.26-25.9L397.26-25.9Q396.81-25.85 396.49-25.78 396.17-25.7 395.87-25.7L395.87-25.7Q395.42-25.7 395.22-25.88 395.01-26.05 395.01-26.75L395.01-26.75Q395.01-27.6 395.26-28.53 395.51-29.45 396.01-30.1L396.01-30.1Q396.51-30.8 397.19-31.13 397.87-31.45 398.67-31.55L398.67-31.55Q399.92-31.7 401.87-31.83 403.81-31.95 406.14-32.05 408.47-32.15 410.72-32.15L410.72-32.15Q414.37-32.15 415.94-32.1 417.51-32.05 418.06-31.95L418.06-31.95Q418.76-31.85 419.04-31.53 419.31-31.2 419.31-30.5L419.31-30.5Q419.31-29.15 418.12-27.8L418.12-27.8Q417.62-27.2 417.06-26.88 416.51-26.55 415.62-26.6L415.62-26.6Q414.81-26.7 413.26-26.75 411.72-26.8 409.81-26.8L409.81-26.8Q409.76-25.05 409.54-22.73 409.31-20.4 409.01-18.05L409.01-18.05Q408.72-15.75 408.51-13.45 408.31-11.15 408.31-9.25L408.31-9.25Q408.31-7.5 408.64-6.18 408.97-4.85 409.97-3.9L409.97-3.9Q410.67-3.2 410.67-2.4L410.67-2.4Q410.67-1.3 409.42-0.4 408.17 0.5 406.17 0.5ZM425.01 0.5L425.01 0.5Q423.81 0.5 423.06-0.15 422.31-0.8 422.31-2.8L422.31-2.8Q422.31-3.8 422.51-5.4 422.71-7 422.91-8.6L422.91-8.6Q423.46-12.15 423.71-14.75 423.96-17.35 423.96-20.05L423.96-20.05Q423.96-22.55 423.69-24.7 423.41-26.85 422.31-28.4L422.31-28.4Q421.91-29.05 421.91-29.4L421.91-29.4Q421.91-30 422.59-30.68 423.26-31.35 424.24-31.8 425.21-32.25 426.06-32.25L426.06-32.25Q427.61-32.25 428.14-30.88 428.66-29.5 428.66-27.45L428.66-27.45Q428.66-26.2 428.51-24.35 428.36-22.5 428.19-20.78 428.01-19.05 427.86-18.1L427.86-18.1Q427.51-15.45 427.31-13.15 427.11-10.85 427.11-9.25L427.11-9.25Q427.11-7.35 427.49-6.05 427.86-4.75 428.81-3.9L428.81-3.9Q429.46-3.3 429.46-2.55L429.46-2.55Q429.46-1.35 428.24-0.43 427.01 0.5 425.01 0.5ZM445.71 0.65L445.71 0.65Q440.56 0.65 437.49-2.38 434.41-5.4 434.41-11.3L434.41-11.3Q434.41-13.95 435.14-16.8 435.86-19.65 437.56-22.45L437.56-22.45Q436.61-21.6 435.76-21.6L435.76-21.6Q434.31-21.6 434.31-23.9L434.31-23.9Q434.31-25.55 435.01-26.55 435.71-27.55 436.36-28.15L436.36-28.15Q437.46-29.1 439.16-30.08 440.86-31.05 443.16-31.7 445.46-32.35 448.31-32.35L448.31-32.35Q455.01-32.35 458.39-28.58 461.76-24.8 461.76-18.1L461.76-18.1Q461.76-14.15 460.61-10.75 459.46-7.35 457.34-4.8 455.21-2.25 452.26-0.8 449.31 0.65 445.71 0.65ZM447.46-4.95L447.46-4.95Q449.96-4.95 452.39-6.1 454.81-7.25 456.39-9.78 457.96-12.3 457.96-16.35L457.96-16.35Q457.96-20.15 456.51-22.43 455.06-24.7 452.84-25.73 450.61-26.75 448.16-26.75L448.16-26.75Q446.31-26.75 444.84-26.28 443.36-25.8 442.21-25.25L442.21-25.25Q440.91-23.25 439.76-20.38 438.61-17.5 438.61-14.3L438.61-14.3Q438.61-11.1 439.86-9.03 441.11-6.95 443.14-5.95 445.16-4.95 447.46-4.95ZM468.71 0.5L468.71 0.5Q467.61 0.5 466.83-0.08 466.06-0.65 466.06-2.8L466.06-2.8Q466.06-3.9 466.28-5.48 466.51-7.05 466.76-8.75L466.76-8.75Q467.16-11.15 467.56-14.03 467.96-16.9 467.96-19.75L467.96-19.75Q467.96-22.75 467.76-24.35 467.56-25.95 467.31-26.95L467.31-26.95Q467.21-27.5 467.13-27.95 467.06-28.4 467.06-28.95L467.06-28.95Q467.06-30.55 468.08-31.38 469.11-32.2 470.36-32.2L470.36-32.2Q471.61-32.2 472.46-31.58 473.31-30.95 473.96-30.25L473.96-30.25Q478.26-25.4 481.71-20.08 485.16-14.75 487.46-9.15L487.46-9.15Q487.71-8.75 487.91-8.75L487.91-8.75Q488.21-8.75 488.31-9.15L488.31-9.15Q489.21-15 489.21-19.75L489.21-19.75Q489.21-22.6 488.98-24.28 488.76-25.95 488.43-26.88 488.11-27.8 487.81-28.35L487.81-28.35Q487.66-28.7 487.56-28.98 487.46-29.25 487.46-29.5L487.46-29.5Q487.46-30.1 488.08-30.73 488.71-31.35 489.61-31.75 490.51-32.15 491.36-32.15L491.36-32.15Q492.56-32.15 493.11-31.35 493.66-30.55 493.83-29.38 494.01-28.2 494.01-27L494.01-27Q494.01-25.65 493.76-23.5 493.51-21.35 493.18-18.88 492.86-16.4 492.63-14 492.41-11.6 492.41-9.75L492.41-9.75Q492.41-8.7 492.48-7.7 492.56-6.7 492.66-5.75L492.66-5.75Q492.81-4.5 492.81-3.55L492.81-3.55Q492.81-1.7 491.88-0.63 490.96 0.45 489.36 0.45L489.36 0.45Q488.26 0.45 487.18-0.2 486.11-0.85 485.56-2.3L485.56-2.3Q483.41-7.8 480.28-13.03 477.16-18.25 473.76-22.05L473.76-22.05Q473.21-22.55 472.86-22.55L472.86-22.55Q472.36-22.55 472.21-21.45L472.21-21.45Q471.96-19.55 471.71-17.3 471.46-15.05 471.31-12.93 471.16-10.8 471.16-9.3L471.16-9.3Q471.16-7.6 471.46-6.38 471.76-5.15 472.36-4L472.36-4Q472.91-3 472.91-2.2L472.91-2.2Q472.91-1.25 471.81-0.38 470.71 0.5 468.71 0.5ZM505.96 0.65L505.96 0.65Q503.51 0.65 501.43-0.08 499.36-0.8 498.11-2.1 496.86-3.4 496.86-5.15L496.86-5.15Q496.86-6.3 497.41-7.18 497.96-8.05 498.91-8.05L498.91-8.05Q499.51-8.05 500.16-7.6L500.16-7.6Q501.41-6.5 503.38-5.68 505.36-4.85 507.61-4.85L507.61-4.85Q510.56-4.85 512.43-6.03 514.31-7.2 514.31-9.2L514.31-9.2Q514.31-11.1 512.56-11.95 510.81-12.8 507.71-13.55L507.71-13.55Q505.41-14.1 503.28-14.95 501.16-15.8 499.78-17.32 498.41-18.85 498.41-21.4L498.41-21.4Q498.41-23.35 499.26-25.28 500.11-27.2 501.76-28.8 503.41-30.4 505.76-31.38 508.11-32.35 511.06-32.35L511.06-32.35Q513.25-32.35 515.08-31.85 516.9-31.35 517.98-30.45 519.06-29.55 519.06-28.25L519.06-28.25Q519.06-27.25 518.5-26.5 517.96-25.75 517.21-25.33 516.46-24.9 515.9-24.9L515.9-24.9Q515.4-24.9 514.56-25.35L514.56-25.35Q513.15-26.1 511.43-26.53 509.71-26.95 508.41-26.95L508.41-26.95Q505.96-26.95 504.43-25.88 502.91-24.8 502.91-23.35L502.91-23.35Q502.91-21.75 504.83-20.68 506.76-19.6 511.76-18.4L511.76-18.4Q515.15-17.5 517.06-15.93 518.96-14.35 518.96-10.95L518.96-10.95Q518.96-7.9 517.33-5.25 515.71-2.6 512.78-0.98 509.86 0.65 505.96 0.65ZM549.4 0.65L549.4 0.65Q545.85 0.65 543.17-0.95 540.5-2.55 539.05-5.5 537.6-8.45 537.6-12.5L537.6-12.5Q537.6-16.35 538.85-19.9 540.1-23.45 542.45-26.25 544.8-29.05 548.1-30.7 551.4-32.35 555.55-32.35L555.55-32.35Q558.65-32.35 560.65-31.4 562.65-30.45 562.65-28.6L562.65-28.6Q562.65-27.7 562.17-26.83 561.7-25.95 560.95-25.35 560.2-24.75 559.4-24.75L559.4-24.75Q558.9-24.75 558.6-25L558.6-25Q557.25-25.9 555.95-26.33 554.65-26.75 552.95-26.75L552.95-26.75Q549.4-26.75 546.95-25.13 544.5-23.5 543.22-20.85 541.95-18.2 541.95-15.1L541.95-15.1Q541.95-12.1 543.1-9.8 544.25-7.5 546.3-6.2 548.35-4.9 551.1-4.9L551.1-4.9Q553.3-4.9 555.37-5.78 557.45-6.65 559.05-8.2L559.05-8.2Q559.75-8.85 560.45-8.85L560.45-8.85Q561.05-8.85 561.3-8.35 561.55-7.85 561.55-7.35L561.55-7.35Q561.55-6.5 561.05-5.43 560.55-4.35 559.5-3.3L559.5-3.3Q557.65-1.45 554.95-0.4 552.25 0.65 549.4 0.65ZM576.95 0.65L576.95 0.65Q571.8 0.65 568.72-2.38 565.65-5.4 565.65-11.3L565.65-11.3Q565.65-13.95 566.37-16.8 567.1-19.65 568.8-22.45L568.8-22.45Q567.85-21.6 567-21.6L567-21.6Q565.55-21.6 565.55-23.9L565.55-23.9Q565.55-25.55 566.25-26.55 566.95-27.55 567.6-28.15L567.6-28.15Q568.7-29.1 570.4-30.08 572.1-31.05 574.4-31.7 576.7-32.35 579.55-32.35L579.55-32.35Q586.25-32.35 589.62-28.58 593-24.8 593-18.1L593-18.1Q593-14.15 591.85-10.75 590.7-7.35 588.57-4.8 586.45-2.25 583.5-0.8 580.55 0.65 576.95 0.65ZM578.7-4.95L578.7-4.95Q581.2-4.95 583.62-6.1 586.05-7.25 587.62-9.78 589.2-12.3 589.2-16.35L589.2-16.35Q589.2-20.15 587.75-22.43 586.3-24.7 584.07-25.73 581.85-26.75 579.4-26.75L579.4-26.75Q577.55-26.75 576.07-26.28 574.6-25.8 573.45-25.25L573.45-25.25Q572.15-23.25 571-20.38 569.85-17.5 569.85-14.3L569.85-14.3Q569.85-11.1 571.1-9.03 572.35-6.95 574.37-5.95 576.4-4.95 578.7-4.95ZM598.09 0.5L598.09 0.5Q597.14 0.5 596.79-0.05 596.44-0.6 596.44-1.25L596.44-1.25Q596.44-4.35 597.07-8.35 597.69-12.35 598.59-16.3L598.59-16.3Q599.39-19.65 600.37-22.55 601.34-25.45 602.09-27.3L602.09-27.3Q603.19-29.9 604.62-31.28 606.04-32.65 607.94-32.65L607.94-32.65Q609.34-32.65 610.44-31.73 611.54-30.8 611.74-28.4L611.74-28.4Q612.04-25.5 612.44-22.55 612.84-19.6 613.34-17.18 613.84-14.75 614.39-13.45L614.39-13.45Q614.84-12.3 615.69-12.3L615.69-12.3Q616.64-12.3 617.34-13.5L617.34-13.5Q617.99-14.6 618.74-16.5 619.49-18.4 620.22-20.53 620.94-22.65 621.49-24.4L621.49-24.4Q622.14-26.3 622.97-28.23 623.79-30.15 625.09-31.43 626.39-32.7 628.34-32.7L628.34-32.7Q630.14-32.7 630.92-31.48 631.69-30.25 631.69-27.6L631.69-27.6Q631.69-25.55 631.54-23.3L631.54-23.3Q631.49-22 631.42-20.63 631.34-19.25 631.34-17.8L631.34-17.8Q631.34-15.55 631.57-13.05 631.79-10.55 632.47-8.35 633.14-6.15 634.49-4.65L634.49-4.65Q634.89-4.3 635.22-3.85 635.54-3.4 635.54-2.85L635.54-2.85Q635.54-1.6 634.22-0.58 632.89 0.45 631.19 0.45L631.19 0.45Q629.64 0.45 628.89-0.55 628.14-1.55 627.69-3.25L627.69-3.25Q627.19-5.35 626.99-7.75 626.79-10.15 626.79-12.4L626.79-12.4Q626.79-16 627.07-19.03 627.34-22.05 627.34-23.5L627.34-23.5Q627.34-24.3 627.19-24.68 627.04-25.05 626.44-25.05L626.44-25.05Q625.74-25.05 625.27-24.43 624.79-23.8 624.49-22.7L624.49-22.7Q623.84-20.6 623.04-18.2 622.24-15.8 621.37-13.5 620.49-11.2 619.49-9.4L619.49-9.4Q618.34-7.3 617.02-6.58 615.69-5.85 614.34-5.85L614.34-5.85Q612.24-5.85 611.17-7.18 610.09-8.5 609.59-10.1L609.59-10.1Q608.94-12.25 608.39-15.73 607.84-19.2 607.59-23.55L607.59-23.55Q607.49-25.4 606.39-25.4L606.39-25.4Q605.19-25.4 604.49-23.6L604.49-23.6Q603.89-21.8 603.34-19.38 602.79-16.95 602.47-14.33 602.14-11.7 602.14-9.15L602.14-9.15Q602.14-7 602.32-5.4 602.49-3.8 602.49-2.4L602.49-2.4Q602.49-1.4 601.72-0.75 600.94-0.1 599.89 0.2 598.84 0.5 598.09 0.5ZM648.59 0.65L648.59 0.65Q643.84 0.65 641.57-0.88 639.29-2.4 639.29-6.6L639.29-6.6Q639.29-7.45 639.42-8.65 639.54-9.85 639.79-11.55L639.79-11.55Q640.19-14 640.39-15.93 640.59-17.85 640.59-20.15L640.59-20.15Q640.59-21.65 640.52-23.05 640.44-24.45 640.24-25.7L640.24-25.7Q639.49-25.55 639.24-25.55L639.24-25.55Q638.84-25.55 638.69-25.73 638.54-25.9 638.54-26.4L638.54-26.4Q638.54-27.45 638.79-28.48 639.04-29.5 639.49-30.15L639.49-30.15Q640.34-31.35 642.09-31.55L642.09-31.55Q643.44-31.7 645.42-31.85 647.39-32 649.47-32.08 651.54-32.15 653.19-32.15L653.19-32.15Q657.79-32.15 658.64-31.95L658.64-31.95Q659.94-31.75 659.94-30.55L659.94-30.55Q659.94-29.05 658.89-27.8L658.89-27.8Q658.34-27.05 657.79-26.73 657.24-26.4 656.24-26.45L656.24-26.45Q654.04-26.6 652.39-26.65 650.74-26.7 650.09-26.7L650.09-26.7Q648.94-26.7 647.72-26.65 646.49-26.6 645.24-26.5L645.24-26.5Q645.24-24.75 645.09-22.75 644.94-20.75 644.69-18.55L644.69-18.55Q646.99-18.7 649.89-18.78 652.79-18.85 655.04-18.85L655.04-18.85Q656.04-18.85 656.42-18.65 656.79-18.45 656.79-17.6L656.79-17.6Q656.79-16.8 656.37-15.83 655.94-14.85 655.24-14.15L655.24-14.15Q654.94-13.85 654.59-13.68 654.24-13.5 653.64-13.55L653.64-13.55Q651.49-13.65 648.77-13.7 646.04-13.75 643.99-13.7L643.99-13.7Q643.79-12.55 643.69-11.6 643.59-10.65 643.59-9.9L643.59-9.9Q643.59-7.15 644.99-6.05 646.39-4.95 649.59-4.95L649.59-4.95Q651.54-4.95 653.37-5.3 655.19-5.65 657.09-6.6L657.09-6.6Q657.79-7 658.14-7L658.14-7Q658.69-7 659.22-6.23 659.74-5.45 659.74-4.55L659.74-4.55Q659.74-3.45 658.92-2.48 658.09-1.5 656.74-0.8L656.74-0.8Q655.19-0.1 653.04 0.28 650.89 0.65 648.59 0.65ZM701.34 0.55L701.34 0.55Q699.79 0.55 698.71-0.78 697.64-2.1 696.64-5.15L696.64-5.15Q696.14-6.65 695.81-8.08 695.49-9.5 695.34-10.85L695.34-10.85Q694.69-9.85 694.16-9.53 693.64-9.2 692.64-9.2L692.64-9.2Q690.19-9.2 687.44-9.28 684.69-9.35 682.54-9.4L682.54-9.4Q682.44-8.5 682.36-7.58 682.29-6.65 682.29-5.75L682.29-5.75Q682.29-4.95 682.36-4.15 682.44-3.35 682.49-2.6L682.49-2.6Q682.64-1.2 681.39-0.35 680.14 0.5 678.29 0.5L678.29 0.5Q676.69 0.5 676.69-0.9L676.69-0.9Q676.69-1.75 677.14-3.45L677.14-3.45Q677.39-4.6 677.54-5.43 677.69-6.25 677.69-6.75L677.69-6.75Q677.69-8.15 676.84-8.65L676.84-8.65Q676.14-9.05 676.14-9.7L676.14-9.7Q676.14-10.3 676.41-11.15 676.69-12 677.14-12.73 677.59-13.45 677.99-13.75L677.99-13.75Q678.34-13.95 678.84-14.1 679.34-14.25 680.09-14.3L680.09-14.3Q682.04-19.9 684.46-23.98 686.89-28.05 689.64-30.28 692.39-32.5 695.24-32.5L695.24-32.5Q696.99-32.5 697.79-31.33 698.59-30.15 698.59-27.4L698.59-27.4 698.59-25.15Q698.59-20.1 699.34-15.85 700.09-11.6 701.19-8.95L701.19-8.95Q702.29-6.15 704.24-4.35L704.24-4.35Q704.84-3.85 705.04-3.48 705.24-3.1 705.24-2.7L705.24-2.7Q705.24-1.95 704.66-1.2 704.09-0.45 703.19 0.05 702.29 0.55 701.34 0.55ZM684.04-14.6L684.04-14.6Q686.49-14.7 688.34-14.78 690.19-14.85 691.44-14.85L691.44-14.85 694.94-14.85Q694.84-16.25 694.76-17.8 694.69-19.35 694.69-21.05L694.69-21.05 694.69-23.95Q694.69-25.4 694.36-25.88 694.04-26.35 693.14-26.35L693.14-26.35Q690.69-26.35 688.24-23.15 685.79-19.95 684.04-14.6ZM717.18 0.65L717.18 0.65Q713.78 0.65 711.93-0.1 710.08-0.85 709.38-2.2 708.68-3.55 708.68-5.4L708.68-5.4Q708.68-6.3 708.83-7.43 708.98-8.55 709.18-10L709.18-10Q710.08-15.5 710.08-19.75L710.08-19.75Q710.08-22.55 709.86-24.53 709.63-26.5 708.53-28.3L708.53-28.3Q708.33-28.6 708.18-28.93 708.03-29.25 708.03-29.45L708.03-29.45Q708.03-30.05 708.73-30.7 709.43-31.35 710.43-31.8 711.43-32.25 712.33-32.25L712.33-32.25Q714.03-32.25 714.46-30.9 714.88-29.55 714.88-27.05L714.88-27.05Q714.88-26.1 714.68-24.03 714.48-21.95 714.08-18.75L714.08-18.75Q713.68-15.65 713.48-13.4 713.28-11.15 713.28-9.8L713.28-9.8Q713.28-7.8 713.76-6.78 714.23-5.75 715.33-5.35L715.33-5.35Q716.43-4.95 718.43-4.95L718.43-4.95Q720.58-4.95 722.53-5.33 724.48-5.7 726.33-6.5L726.33-6.5Q726.58-6.6 726.78-6.65 726.98-6.7 727.13-6.7L727.13-6.7Q727.58-6.7 727.98-6.15 728.38-5.6 728.38-4.6L728.38-4.6Q728.38-2.4 725.98-1.15L725.98-1.15Q722.78 0.65 717.18 0.65ZM734.78 0.5L734.78 0.5Q733.58 0.5 732.83-0.15 732.08-0.8 732.08-2.8L732.08-2.8Q732.08-3.8 732.28-5.4 732.48-7 732.68-8.6L732.68-8.6Q733.23-12.15 733.48-14.75 733.73-17.35 733.73-20.05L733.73-20.05Q733.73-22.55 733.46-24.7 733.18-26.85 732.08-28.4L732.08-28.4Q731.68-29.05 731.68-29.4L731.68-29.4Q731.68-30 732.36-30.68 733.03-31.35 734.01-31.8 734.98-32.25 735.83-32.25L735.83-32.25Q737.38-32.25 737.91-30.88 738.43-29.5 738.43-27.45L738.43-27.45Q738.43-26.2 738.28-24.35 738.13-22.5 737.96-20.78 737.78-19.05 737.63-18.1L737.63-18.1Q737.28-15.45 737.08-13.15 736.88-10.85 736.88-9.25L736.88-9.25Q736.88-7.35 737.26-6.05 737.63-4.75 738.58-3.9L738.58-3.9Q739.23-3.3 739.23-2.55L739.23-2.55Q739.23-1.35 738.01-0.43 736.78 0.5 734.78 0.5ZM753.73 0.8L753.73 0.8Q752.03 0.8 751.1-0.33 750.18-1.45 750.03-4.25L750.03-4.25Q749.93-7.2 749.55-10.13 749.18-13.05 748.53-15.6L748.53-15.6Q747.68-19.3 746.25-22.43 744.83-25.55 742.33-27.55L742.33-27.55Q741.93-27.9 741.68-28.23 741.43-28.55 741.43-29.05L741.43-29.05Q741.43-30.15 742.55-31.15 743.68-32.15 745.18-32.15L745.18-32.15Q746.93-32.15 748.18-30.7 749.43-29.25 750.43-26.65L750.43-26.65Q752.13-22.55 752.9-17.48 753.68-12.4 753.78-7.7L753.78-7.7Q753.83-6.3 754.18-5.83 754.53-5.35 755.38-5.35L755.38-5.35Q757.18-5.35 758.9-6.75 760.63-8.15 762.05-10.55 763.48-12.95 764.33-16 765.18-19.05 765.18-22.4L765.18-22.4Q765.18-24.45 764.9-25.73 764.63-27 764.28-27.75L764.28-27.75Q763.83-28.75 763.83-29.35L763.83-29.35Q763.83-30.1 764.53-30.75 765.23-31.4 766.15-31.83 767.08-32.25 767.83-32.25L767.83-32.25Q768.83-32.25 769.28-31.53 769.73-30.8 769.88-29.7 770.03-28.6 770.03-27.45L770.03-27.45Q770.03-24 769.23-20.15 768.43-16.3 766.95-12.58 765.48-8.85 763.45-5.83 761.43-2.8 758.98-1 756.53 0.8 753.73 0.8ZM783.83 0.65L783.83 0.65Q779.08 0.65 776.8-0.88 774.53-2.4 774.53-6.6L774.53-6.6Q774.53-7.45 774.65-8.65 774.78-9.85 775.03-11.55L775.03-11.55Q775.43-14 775.63-15.93 775.83-17.85 775.83-20.15L775.83-20.15Q775.83-21.65 775.75-23.05 775.68-24.45 775.48-25.7L775.48-25.7Q774.73-25.55 774.48-25.55L774.48-25.55Q774.08-25.55 773.93-25.73 773.78-25.9 773.78-26.4L773.78-26.4Q773.78-27.45 774.03-28.48 774.28-29.5 774.73-30.15L774.73-30.15Q775.58-31.35 777.33-31.55L777.33-31.55Q778.68-31.7 780.65-31.85 782.63-32 784.7-32.08 786.78-32.15 788.43-32.15L788.43-32.15Q793.03-32.15 793.88-31.95L793.88-31.95Q795.18-31.75 795.18-30.55L795.18-30.55Q795.18-29.05 794.13-27.8L794.13-27.8Q793.58-27.05 793.03-26.73 792.48-26.4 791.48-26.45L791.48-26.45Q789.28-26.6 787.63-26.65 785.98-26.7 785.33-26.7L785.33-26.7Q784.18-26.7 782.95-26.65 781.73-26.6 780.48-26.5L780.48-26.5Q780.48-24.75 780.33-22.75 780.18-20.75 779.93-18.55L779.93-18.55Q782.23-18.7 785.13-18.78 788.03-18.85 790.28-18.85L790.28-18.85Q791.28-18.85 791.65-18.65 792.03-18.45 792.03-17.6L792.03-17.6Q792.03-16.8 791.6-15.83 791.18-14.85 790.48-14.15L790.48-14.15Q790.18-13.85 789.83-13.68 789.48-13.5 788.88-13.55L788.88-13.55Q786.73-13.65 784-13.7 781.28-13.75 779.23-13.7L779.23-13.7Q779.03-12.55 778.93-11.6 778.83-10.65 778.83-9.9L778.83-9.9Q778.83-7.15 780.23-6.05 781.63-4.95 784.83-4.95L784.83-4.95Q786.78-4.95 788.6-5.3 790.43-5.65 792.33-6.6L792.33-6.6Q793.03-7 793.38-7L793.38-7Q793.93-7 794.45-6.23 794.98-5.45 794.98-4.55L794.98-4.55Q794.98-3.45 794.15-2.48 793.33-1.5 791.98-0.8L791.98-0.8Q790.43-0.1 788.28 0.28 786.13 0.65 783.83 0.65Z" opacity="1" transform="matrix(1,0,0,1,0,0)" fill="#556970" class="slogan-text-1" data-fill-palette-color="secondary" id="text-1"></path></svg></g></svg></g></svg></g></svg></g><g transform="matrix(1,0,0,1,111.82671620839359,0)"><svg viewBox="0 0 173.84416758321274 125.26168628191346" height="125.26168628191346" width="173.84416758321274"><g><svg xmlns="http://www.w3.org/2000/svg" xmlns:xlink="http://www.w3.org/1999/xlink" version="1.1" x="0" y="0" viewBox="0 13.97237566235388 100 72.05400562084164" enable-background="new 0 0 100 100" xml:space="preserve" height="125.26168628191346" width="173.84416758321274" class="icon-icon-0" data-fill-palette-color="accent" id="icon-0"><g fill="#aba944" data-fill-palette-color="accent"><path fill="#aba944" d="M90.154 70.201A24.86 24.86 0 0 0 91.465 56.234C88.828 42.678 75.697 33.825 62.137 36.464 61.526 36.582 60.926 36.723 60.336 36.883A27.4 27.4 0 0 1 59.902 44.203C58.013 53.904 51.093 61.589 42.187 64.749 42.24 65.096 42.298 65.441 42.365 65.788 45.004 79.348 58.136 88.2 71.691 85.561A24.9 24.9 0 0 0 84.607 78.693L100 83.259zM74.617 65.054L74.582 65.079 66.809 70.946H66.807L59.078 65.068 59.041 65.041A5.55 5.55 0 1 1 66.839 57.292 5.55 5.55 0 1 1 74.617 65.054" data-fill-palette-color="accent"></path><path fill="#aba944" d="M57.633 43.762C60.272 30.206 51.418 17.075 37.863 14.438 24.302 11.798 11.172 20.652 8.535 34.209A24.83 24.83 0 0 0 9.846 48.176L0 61.231 15.393 56.667A24.9 24.9 0 0 0 28.309 63.536C41.863 66.175 54.994 57.321 57.633 43.762M34.889 44.845L31.241 41.196 19.61 48.175 31.262 33.19 34.912 36.839 46.543 29.86z" data-fill-palette-color="accent"></path></g></svg></g></svg></g><g></g></svg></g><defs></defs></svg><rect width="373.10087652908186" height="247.2" fill="none" stroke="none" visibility="hidden"></rect></g></svg></g></svg>