<svg xmlns="http://www.w3.org/2000/svg" version="1.1" xmlns:xlink="http://www.w3.org/1999/xlink" xmlns:svgjs="http://svgjs.dev/svgjs" width="1500" height="1682" viewBox="0 0 1500 1682"><g transform="matrix(1,0,0,1,-2.3361931736363886,0)"><svg viewBox="0 0 321 360" data-background-color="#edeae0" preserveAspectRatio="xMidYMid meet" height="1682" width="1500" xmlns="http://www.w3.org/2000/svg" xmlns:xlink="http://www.w3.org/1999/xlink"><g id="tight-bounds" transform="matrix(1,0,0,1,0.5000546608418972,0)"><svg viewBox="0 0 320 360" height="360" width="320"><g><svg></svg></g><g><svg viewBox="0 0 320 360" height="360" width="320"><g><path transform="translate(-119.39272,-98.31927) scale(5.58313,5.58313)" d="M36.7 23.5c0-0.2 0.1-0.4 0.3-0.4 0.2 0 0.4 0.1 0.4 0.4 0.1 0 0.3 0 0.4-0.1 0.4 0 0.8-0.1 1.1 0 0.3 0.1 0.5 0.1 0.8 0.2 0.3 0.1 0.5 0 0.7-0.1 0.4-0.1 0.7-0.3 1.1-0.4 0.2-0.1 0.3-0.1 0.5-0.1 0.2-0.1 0.4-0.1 0.7-0.2 0.5-0.1 1-0.2 1.4-0.4 0.4-0.2 0.8-0.2 1.2-0.3 0.2 0 0.3-0.1 0.5-0.2 0.1 0 0.1-0.1 0.2-0.2 0.2-0.1 0.3-0.2 0.5-0.1 0.1 0.1 0.3 0.1 0.4 0h0.1c0.6 0 1.2-0.1 1.9 0 0.1 0 0.2 0 0.2 0 0.3-0.2 0.7-0.2 1.1-0.2 0.1 0 0.3 0 0.4 0h0.1c0.4 0 0.8 0 1.1 0.1 0.3 0 0.5 0.1 0.8 0.2 0.3 0 0.5 0 0.8 0.1 0.2 0 0.4 0 0.6 0 0.1 0 0.2 0 0.2 0 0.4 0.1 0.8 0.1 1.2 0.1 0.3 0.1 0.6 0.2 1 0.2 0.1 0 0.2 0 0.3 0 0.1 0 0.2 0.1 0.3 0.1l0.1 0.1c0.4 0 0.7 0.2 1.1 0.2 0.1 0 0.3 0 0.4 0.1 0.3 0.2 0.7 0.3 1.1 0.3 0.2 0 0.3 0.1 0.4 0.2 0.3 0.1 0.5 0.2 0.8 0.3 0.2 0.1 0.4 0 0.6 0.1 0.3 0.1 0.7 0.2 1 0.5 0.2 0.2 0.4 0.2 0.7 0.4 0.1 0 0.2 0.1 0.3 0.2 0.3 0.2 0.6 0.4 0.9 0.5 0.1 0 0.2 0.1 0.3 0.1 0.3 0.2 0.6 0.5 1 0.7 0.2 0.1 0.3 0.2 0.5 0.3h0.1c0.3 0.3 0.7 0.5 1 0.8 0.3 0.3 0.5 0.5 0.9 0.7 0 0 0 0 0 0.1 0.1 0.2 0.2 0.3 0.4 0.4 0.2 0.1 0.3 0.2 0.4 0.3 0.3 0.2 0.6 0.4 0.8 0.6 0.1 0.1 0.2 0.2 0.4 0.4 0.1 0.1 0.2 0.2 0.3 0.2 0.4 0.1 0.6 0.4 0.9 0.7 0.2 0.2 0.5 0.5 0.7 0.7 0.1 0.1 0.2 0.3 0.3 0.5 0.2 0.6 0.5 1.2 0.8 1.7 0 0 0 0.1 0.1 0.2v0.1c0.2 0.2 0.3 0.5 0.5 0.7 0.1 0.1 0.1 0.2 0.2 0.3 0.2 0.3 0.3 0.7 0.5 1 0.3 0.5 0.5 1 0.7 1.5v0.1c0.1 0.2 0.2 0.4 0.3 0.7 0 0.2 0.2 0.4 0.3 0.7 0.1 0.5 0.4 1 0.5 1.6 0 0.1 0.1 0.2 0.1 0.4 0.1 0.3 0.2 0.6 0.3 0.9 0 0.1 0.1 0.2 0.2 0.3 0.2 0.2 0.2 0.4 0.2 0.6-0.1 0.4 0 0.8 0.1 1.2 0 0.1 0 0.2 0 0.4 0.1 0.4 0.2 0.9 0.2 1.3 0 0.1 0 0.3 0 0.4 0 0.3 0.1 0.6 0.3 0.9 0 0.1 0.1 0.1 0.1 0.1 0.1 0.1 0.2 0.3 0.3 0.4 0.1 0.1 0.1 0.1 0.2 0.2 0.2 0.2 0.3 0.4 0.3 0.7 0 0.1-0.1 0.3-0.1 0.4 0 0.1 0 0.3 0.1 0.4 0.1 0.1 0.1 0.2 0.1 0.3 0 0.1-0.1 0.2-0.2 0.2v0c-0.1 0.3-0.5 0.4-0.6 0.7-0.1 0.4-0.2 0.8-0.3 1.2-0.1 0.3-0.1 0.5-0.1 0.8 0 0.3-0.1 0.5-0.1 0.8-0.1 0.4-0.2 0.8-0.3 1.2 0 0.2-0.1 0.4-0.1 0.6 0.1 0.1 0.2 0.2 0.3 0.2 0.2 0.2 0.4 0.4 0.6 0.6 0.1 0.1 0.1 0.2 0 0.2-0.1 0.1-0.2 0.1-0.3 0.1-0.1-0.1-0.3-0.2-0.4-0.2-0.1-0.1-0.3-0.2-0.5-0.1 0 0.2-0.1 0.4-0.1 0.5-0.1 0.2-0.2 0.5-0.2 0.7-0.1 0.4-0.3 0.7-0.4 1.1-0.2 0.5-0.4 0.9-0.6 1.3-0.1 0.2-0.2 0.4-0.3 0.6v0c0 0.3-0.3 0.6-0.4 0.9-0.2 0.4-0.4 0.8-0.6 1.3-0.1 0.2-0.2 0.4-0.3 0.5-0.2 0.5-0.4 0.9-0.7 1.3-0.2 0.3-0.4 0.5-0.6 0.6-0.2 0.2-0.4 0.4-0.6 0.6-0.1 0.1-0.2 0.2-0.3 0.3-0.1 0.1-0.1 0.1-0.2 0.2-0.2 0.3-0.5 0.5-0.7 0.8-0.2 0.2-0.3 0.4-0.6 0.6-0.2 0.2-0.4 0.5-0.7 0.6-0.1 0.1-0.2 0.3-0.3 0.4-0.1 0.1-0.2 0.3-0.3 0.4 0 0.2 0.1 0.4 0.1 0.5 0 0.3-0.3 0.4-0.5 0.2-0.3-0.2-0.3-0.2-0.6 0-0.3 0.2-0.6 0.5-1 0.6-0.1 0-0.1 0.1-0.2 0.1-0.2 0.1-0.3 0.3-0.5 0.4-0.2 0.2-0.5 0.3-0.7 0.5-0.1 0.1-0.2 0.1-0.3 0.2-0.3 0.2-0.6 0.3-0.9 0.6-0.1 0.1-0.2 0.1-0.3 0.2 0 0.1 0 0.1 0 0.2 0 0.2-0.2 0.4-0.5 0.3-0.3-0.1-0.5 0-0.8 0-0.3 0.1-0.6 0.3-0.9 0.4-0.1 0-0.2 0.1-0.3 0.2-0.3 0.2-0.6 0.3-0.9 0.4-0.2 0-0.4 0.2-0.6 0.2-0.1 0-0.2 0.1-0.3 0.1h-0.1c-0.4 0.3-0.8 0.5-1.2 0.8-0.1 0-0.1 0.1-0.2 0.2-0.1 0.2-0.2 0.3-0.4 0.3-0.5 0-0.7 0.4-0.6 0.8 0 0.1 0.1 0.2 0.1 0.3 0.1 0.2 0 0.4-0.1 0.5-0.1 0.1-0.4 0.1-0.5-0.1-0.2-0.2-0.3-0.4-0.4-0.7-0.1-0.2-0.3-0.4-0.5-0.5-0.2-0.1-0.4-0.1-0.6 0-0.1 0-0.1 0.1-0.2 0.1-0.2 0.2-0.5 0.3-0.8 0.2-0.1 0-0.3 0-0.3 0.1-0.1 0.1-0.1 0.3 0 0.4 0.2 0.2 0.1 0.4 0.1 0.7 0 0.4-0.3 0.6-0.7 0.4-0.1-0.1-0.2-0.1-0.3-0.2-0.1 0-0.1-0.1-0.1-0.2-0.1-0.1-0.1-0.3-0.2-0.5-0.2 0.1-0.4 0.1-0.6 0.2-0.1 0-0.2 0.1-0.3 0.1-0.3 0-0.4 0-0.5-0.3-0.1-0.3-0.3-0.3-0.5-0.4-0.4-0.1-0.9-0.1-1.3-0.3h-0.1c-0.4-0.3-0.8-0.3-1.3-0.3-0.3 0-0.6 0.1-0.9 0.1-0.3 0-0.5 0.1-0.7 0.3-0.1 0.1-0.2 0.2-0.3 0.2-0.1-0.1-0.1-0.2-0.2-0.3v-0.1c0-0.1-0.1-0.2-0.2-0.1-0.2 0.1-0.4-0.1-0.6-0.2-0.1-0.1-0.3-0.3-0.3-0.5-0.1-0.1-0.2-0.2-0.3-0.2-0.2 0-0.5-0.1-0.7-0.1-0.1 0-0.2 0-0.2-0.1-0.1-0.1-0.2-0.1-0.4-0.1-0.1 0-0.1-0.1-0.2-0.1 0.2 0.2 0.3 0.4 0.4 0.6 0 0.1 0.1 0.1 0.1 0.2 0.1 0.2 0 0.3-0.3 0.3-0.2 0-0.2 0-0.3 0.1 0 0.2 0 0.3 0 0.5 0 0.1 0 0.2-0.2 0.3 0 0-0.1 0-0.1 0.1-0.1 0.1-0.1 0.2 0 0.3 0.3 0.2 0.5 0.3 0.8 0.4 0.3 0 0.3 0.2 0.4 0.4 0.1 0.2 0 0.3-0.1 0.5-0.2 0.2-0.4 0.4-0.6 0.6-0.3 0.1-0.5 0.4-0.8 0.4-0.2 0-0.4-0.1-0.5-0.3-0.1-0.5-0.1-0.9 0.1-1.4 0-0.1 0.1-0.2 0-0.3-0.9 0-0.9-0.2-0.9-0.3 0-0.2 0.1-0.3 0.1-0.5 0.1-0.2 0-0.3-0.3-0.4-0.1 0-0.2 0-0.3 0-0.1 0-0.1-0.1-0.3-0.1 0.2-0.1 0.3-0.1 0.5-0.2-0.1-0.4-0.2-0.7-0.5-0.9-0.1-0.1-0.2-0.2-0.2-0.4 0-0.3-0.2-0.5-0.3-0.7-0.2-0.3-0.6-0.4-0.9-0.4-0.3-0.1-0.5-0.1-0.8-0.2-0.3-0.1-0.6-0.4-0.9-0.5-0.1-0.1-0.2-0.2-0.4-0.3-0.4-0.2-0.7-0.5-1-0.8-0.2-0.1-0.3-0.3-0.5-0.4-0.2-0.2-0.3-0.4-0.5-0.5-0.2-0.2-0.4-0.4-0.7-0.6-0.3-0.2-0.5-0.5-0.8-0.8-0.2-0.3-0.5-0.5-0.8-0.7-0.1 0-0.2 0-0.3 0-0.1 0-0.2 0.1-0.3 0.1-0.3 0.1-0.5 0.3-0.8 0.4 0.1-0.1 0.1-0.1 0-0.3-0.1-0.1-0.2-0.2-0.3-0.2-0.2 0-0.4 0-0.6 0-0.4 0-0.8 0.1-1.2 0.1-0.3 0-0.7 0.1-1 0.2 0.1 0.2 0.1 0.3 0.2 0.5-0.2 0.1-0.4 0.1-0.6 0.1-0.1 0-0.3 0.1-0.4 0.2-0.1 0-0.1 0.1-0.2 0-0.2-0.1-0.4 0-0.6 0.1h-0.1c0 0 0-0.1 0.1-0.1 0.1-0.1 0.2-0.2 0.3-0.3 0.1-0.1 0.2-0.1 0.4-0.2-0.1-0.1-0.1-0.2-0.1-0.2-0.1-0.1-0.2-0.1-0.3 0-0.1 0.1-0.2 0.2-0.3 0.3-0.1 0.1-0.2 0.1-0.3 0-0.1-0.1-0.1-0.2 0-0.3 0-0.1 0.1-0.2 0.2-0.3 0.1-0.1 0.1-0.2 0.2-0.3-0.2-0.2-0.3-0.4-0.5-0.5-0.3-0.2-0.6-0.5-0.8-0.8-0.2-0.4-0.5-0.7-0.9-0.9-0.1-0.1-0.2-0.2-0.3-0.3-0.1-0.1-0.1-0.1-0.2-0.2-0.3 0.1-0.5 0.3-0.8 0.4-0.1 0-0.1 0.1-0.2 0.2-0.1 0.2-0.3 0.2-0.5 0.2-0.1 0-0.2-0.1-0.1-0.2 0.1-0.2 0.2-0.4 0.5-0.3 0 0 0.1 0 0.1-0.1 0.2-0.2 0.4-0.5 0.7-0.7-0.1-0.3-0.3-0.5-0.4-0.7-0.1-0.1-0.1-0.2-0.1-0.4 0-0.1 0-0.1-0.1-0.2 0 0-0.1 0-0.2 0.1-0.1 0.1-0.3 0.2-0.5 0 0-0.1 0-0.2 0.1-0.3l0.1-0.1c0.3-0.1 0.3-0.4 0.3-0.7v-0.1c-0.1-0.2-0.1-0.3 0.1-0.5 0.3-0.2 0.6-0.6 0.7-0.9 0.1-0.2 0.3-0.3 0.5-0.5 0.2-0.2 0.4-0.4 0.5-0.7h0.1c0.4 0.1 0.5-0.2 0.7-0.5 0-0.1 0-0.2 0.1-0.2 0.2-0.2 0.2-0.4 0.1-0.7 0-0.1-0.1-0.3-0.1-0.4 0-0.1 0-0.1-0.1-0.2-0.3-0.2-0.3-0.4 0-0.6 0.2-0.1 0.2-0.3 0.3-0.4 0.1-0.2 0.1-0.4 0.1-0.7-0.1-0.3-0.1-0.7-0.2-1-0.1-0.4-0.2-0.9-0.3-1.3 0-0.1 0-0.1 0-0.2 0-0.3 0-0.5-0.1-0.8-0.1-0.1-0.1-0.3-0.1-0.4-0.1-0.3-0.2-0.5-0.5-0.6-0.3-0.2-0.7-0.3-1-0.5-0.1-0.1-0.2 0-0.3 0.1-0.1 0.2-0.3 0.4-0.4 0.6-0.1 0.1-0.2 0.3-0.3 0.5-0.2 0.2-0.6 0.4-0.9 0.1-0.1-0.2-0.2-0.3 0-0.5 0.2-0.3 0.4-0.6 0.7-0.8 0.1-0.1 0.2-0.3 0.3-0.4 0.1-0.2 0.1-0.4 0.1-0.6-0.1-0.4-0.2-0.8-0.2-1.3 0-0.5 0-0.9 0.1-1.4 0.1-0.2 0.1-0.5 0.2-0.7 0-0.1 0.1-0.3 0.2-0.4 0.2-0.2 0.4-0.4 0.5-0.7 0.1-0.3 0.3-0.6 0.3-0.9 0-0.1 0.1-0.2 0.1-0.3 0-0.1 0.1-0.3 0.1-0.4-0.1-0.3 0-0.5 0.1-0.7 0.1-0.2 0.2-0.5 0.3-0.7 0.2-0.4 0.2-0.9 0.6-1.3 0.1-0.2 0.2-0.4 0.3-0.6 0.1-0.4 0.3-0.7 0.5-1 0.1-0.1 0.1-0.1 0.1-0.2 0.1-0.3 0.3-0.6 0.5-0.9 0.2-0.3 0.2-0.6 0.3-0.9 0-0.1 0-0.2 0.1-0.3 0.3-0.3 0.2-0.7 0.1-1.1-0.2-0.5-0.3-1-0.2-1.5 0-0.1 0-0.2 0.1-0.2 0.1-0.2 0.1-0.3 0.2-0.5v-0.1c0.2-0.2 0.4-0.5 0.7-0.6 0.4-0.2 0.8-0.3 1.3-0.4 0.4 0 0.8-0.2 1.1-0.6 0-0.1 0.1-0.1 0.2-0.2l0.1-0.1c0.1-0.2 0.2-0.3 0.3-0.4 0.2-0.2 0.4-0.5 0.6-0.7 0.2-0.2 0.4-0.5 0.7-0.8l0.1-0.1c0.2-0.2 0.4-0.4 0.6-0.5 0.2-0.2 0.4-0.4 0.6-0.6 0.2-0.2 0.3-0.4 0.5-0.6 0.2-0.1 0.4-0.3 0.6-0.5 0.2-0.2 0.4-0.4 0.5-0.5 0.2-0.2 0.5-0.4 0.7-0.5 0.2-0.1 0.4-0.2 0.5-0.5 0.1-0.3 0.2-0.5 0.3-0.8 0-0.2 0.1-0.4 0.2-0.6 0.1 0 0.2 0 0.4-0.1-0.1-0.1-0.2-0.1-0.2-0.2 0-0.1 0.1-0.2 0.1-0.2 0-0.1 0.1-0.2 0.1-0.3 0 0 0.1 0 0.1-0.1 0 0 0.1 0 0.1-0.1-0.2 0.1-0.3 0-0.4-0.1 0.1 0.1 0.2 0.1 0.4 0.2 0 0 0.1 0 0.1-0.1 0-0.1 0-0.2 0-0.2 0 0-0.1 0-0.2 0-0.1 0-0.2 0.1-0.3 0.1zM54 70.5c0-0.1-0.1-0.1-0.1-0.2-0.1-0.2 0-0.3 0.1-0.4 0.1-0.1 0.2-0.1 0.4-0.1 0.2 0.1 0.3 0.2 0.3 0.4 0 0.1 0 0.3 0 0.4 0.1 0.4 0.1 0.4 0.5 0.4 0.2 0 0.4 0 0.6 0 0.4-0.1 0.8-0.3 1.2-0.4 0.4-0.1 0.8-0.2 1.2-0.3 0.1 0 0.2 0 0.4 0 0.4 0.1 0.7 0 1-0.2 0.1-0.1 0.3-0.1 0.4-0.2 0.2-0.1 0.4-0.1 0.6-0.2 0.5-0.3 1-0.5 1.4-0.8 0.3-0.2 0.6-0.4 0.9-0.6 0.3-0.2 0.6-0.4 0.9-0.6 0.2-0.1 0.5-0.3 0.7-0.5 0.4-0.3 0.7-0.6 1.1-0.8 0.2-0.1 0.3-0.2 0.4-0.3 0.2-0.1 0.3-0.3 0.5-0.4 0.1-0.1 0.2-0.2 0.4-0.3 0.1-0.1 0.1-0.1 0.1-0.2 0.3-0.2 0.6-0.6 0.8-0.9 0.2-0.2 0.4-0.4 0.6-0.7 0.3-0.3 0.5-0.7 0.8-1.1 0.2-0.2 0.4-0.5 0.5-0.7 0.2-0.4 0.4-0.8 0.7-1.1v-0.1c0.2-0.4 0.4-0.8 0.6-1.2 0.3-0.5 0.5-1.1 0.8-1.6 0.1-0.2 0.2-0.4 0.2-0.6 0.2-0.4 0.3-0.8 0.4-1.2 0-0.1 0-0.1 0.1-0.2 0.3-0.6 0.5-1.2 0.6-1.9 0.1-0.4 0.2-0.8 0.3-1.2 0.2-0.6 0.2-1.1 0.3-1.7 0.1-0.4 0.1-0.9 0.1-1.3 0.1-0.6 0.1-1.3 0-1.9 0-0.5-0.1-1.1-0.1-1.6 0-0.5-0.1-0.9-0.2-1.4-0.1-0.5-0.2-0.9-0.3-1.4-0.2-0.4-0.3-0.8-0.4-1.3-0.1-0.4-0.3-0.7-0.3-1.1 0-0.3-0.1-0.6-0.4-0.7-0.3-0.1-0.5-0.2-0.8-0.4-0.6-0.4-0.9-0.9-0.8-1.5 0-0.3 0.1-0.7 0.2-1 0.1-0.3 0.2-0.6 0-0.8-0.1-0.3-0.3-0.5-0.4-0.7-0.2-0.3-0.3-0.5-0.5-0.7-0.2-0.4-0.4-0.8-0.7-1.1-0.4-0.5-0.7-1-1.2-1.4l-0.1-0.1c-0.3-0.4-0.6-0.8-1-1.1-0.2-0.2-0.4-0.4-0.6-0.5-0.1-0.1-0.2-0.2-0.4-0.3-0.3-0.2-0.6-0.3-0.8-0.5-0.3-0.3-0.7-0.5-1-0.7 0 0-0.1 0-0.1-0.1-0.4-0.2-0.7-0.3-1.1-0.5-0.4-0.2-0.8-0.3-1.2-0.3-0.1 0-0.1 0-0.2 0-0.1-0.1-0.3-0.1-0.4-0.1-0.1 0-0.1 0-0.2 0-0.2-0.1-0.5 0-0.7 0-0.4 0.1-0.8 0.1-1.2-0.1-0.5-0.2-0.9-0.4-1.3-0.6-0.3-0.2-0.5-0.4-0.8-0.6-0.6-0.5-1.2-1.1-1.9-1.6 0.1-0.5-0.1-0.6-0.5-0.6-0.2 0-0.4 0.1-0.6 0.2-0.1 0.1-0.1 0.1-0.2 0.2-0.3 0.2-0.5 0.5-0.8 0.7-0.5 0.3-0.7 0.2-1.1 0-0.1-0.1-0.2-0.2-0.3-0.3-0.2-0.2-0.4-0.5-0.5-0.7-0.2-0.4-0.6-0.4-1-0.4-0.2 0-0.5 0.1-0.7 0.1-0.4 0-0.8 0.2-1 0.5-0.2 0.3-0.4 0.6-0.7 0.9-0.1 0.1-0.3 0.2-0.4 0.4-0.2 0.2-0.4 0.2-0.6 0-0.1-0.1-0.2-0.1-0.3-0.2-0.1 0.1-0.2 0.2-0.2 0.3-0.1 0.2-0.2 0.4-0.3 0.7-0.1 0.3-0.3 0.6-0.5 0.8-0.1 0.1-0.1 0.1-0.2 0.2-0.1 0.2-0.4 0.3-0.6 0.3-0.2 0.2-0.4 0.5-0.5 0.7-0.1 0.2-0.2 0.4-0.3 0.7-0.1 0.1-0.1 0.3-0.2 0.4-0.1 0.2-0.1 0.3-0.1 0.5 0.1 0.3-0.1 0.4-0.4 0.5-0.2 0-0.2 0-0.3 0.2 0 0.3 0.1 0.5 0.2 0.8 0.1 0.1 0.2 0.3 0.2 0.4 0 0.2 0.1 0.3 0.3 0.4 0.1 0.1 0.2 0.2 0.3 0.2 0.1 0 0.1 0.1 0.2 0.1 0.1 0.1 0.2 0 0.2-0.1 0.1-0.3 0.2-0.6 0.2-0.9 0.1-0.4 0.1-0.7 0.2-1.1 0.1-0.2 0.2-0.3 0.3-0.4 0 0 0.1 0 0.2 0v0.1c-0.1 0.5-0.3 1.1-0.4 1.6-0.1 0.2-0.1 0.4-0.2 0.6 0 0.1-0.1 0.2-0.2 0.2-0.2 0.1-0.4 0.2-0.6 0.2-0.1 0-0.2 0-0.3 0-0.2-0.1-0.4-0.3-0.6-0.4-0.1-0.1-0.2-0.2-0.3-0.3-0.1-0.2-0.2-0.4-0.3-0.6-0.1-0.2-0.2-0.3-0.4-0.4-0.1-0.1-0.2-0.1-0.3-0.2-0.2-0.2-0.4-0.3-0.7-0.3-0.1 0-0.3 0-0.4 0-0.1 0-0.3 0.1-0.4 0.2-0.2 0.1-0.3 0.1-0.5 0-0.5-0.2-1-0.1-1.5 0.1-0.2 0.1-0.4 0.2-0.6 0.2-0.5 0-0.9 0-1.4 0-0.5 0-0.9-0.1-1.4-0.2-0.2 0-0.4 0-0.6 0-0.4 0.1-0.5 0.4-0.4 0.8 0.1 0.4 0.2 0.9 0.2 1.3 0 0.3 0 0.6 0 0.9 0 0.2 0 0.3 0 0.5 0 0.3-0.1 0.6-0.1 0.9-0.1 0.6-0.4 1.1-0.8 1.5-0.3 0.3-0.7 0.6-1.1 0.7-0.2 0.1-0.4 0.2-0.7 0.3-0.5 0.2-0.9 0.6-1.2 1.1-0.1 0.2-0.2 0.4-0.3 0.6-0.2 0.3-0.3 0.5-0.5 0.8-0.1 0.2-0.3 0.4-0.4 0.6-0.1 0.2-0.3 0.3-0.3 0.5-0.2 0.4-0.3 0.8-0.5 1.2-0.1 0.2-0.1 0.5-0.2 0.7-0.2 0.4-0.2 0.8-0.2 1.3 0 0.1 0 0.2 0 0.4 0 0.5-0.1 1.1-0.1 1.6 0 0.5 0 1 0.1 1.5 0 0.2 0 0.5 0 0.7 0 0.4 0.1 0.9 0.1 1.3 0 0.4 0 0.9 0.2 1.3v0.1c0.1 0.4 0.1 0.8 0.2 1.2 0 0.1 0 0.2 0.1 0.3 0.2 0.6 0.3 1.1 0.5 1.7 0.1 0.4 0.3 0.8 0.4 1.2 0.1 0.4 0.5 0.8 0.6 1.3v0c0.3 0.6 0.6 1.2 1 1.8 0.1 0.2 0.3 0.4 0.4 0.6 0.2 0.3 0.3 0.6 0.5 0.8 0.1 0.2 0.3 0.4 0.4 0.5 0.1 0.2 0.2 0.4 0.4 0.6 0.2 0.2 0.4 0.5 0.6 0.7 0.3 0.5 0.7 0.9 1.1 1.2 0.2 0.2 0.4 0.3 0.6 0.5 0.1 0.1 0.2 0.1 0.2 0.2 0.1 0.1 0.2 0.2 0.4 0.3 0.8 0.4 1.4 1 2.1 1.6 0.3 0.3 0.6 0.6 1 0.8 0.4 0.3 0.7 0.6 1.2 0.7 0 0 0.1 0 0.1 0.1 0.2 0.2 0.5 0.3 0.7 0.4 0.4 0.2 0.9 0.4 1.3 0.6 0.1 0.1 0.3 0.1 0.4 0.2 0.3 0.1 0.6 0.2 0.9 0.3 0.3 0.1 0.5 0.2 0.8 0.2h0.1c0.2 0.1 0.3 0.1 0.5 0 0.1 0 0.2 0 0.2 0.1 0 0.1 0.1 0.1 0.2 0.1 0.1 0 0.2 0 0.4 0 0.1-0.1 0.1-0.2 0.2-0.4 0.1 0.1 0.2 0.1 0.2 0.1 0.1 0.2 0.3 0.2 0.5 0.2h0.1c0.2 0 0.3 0 0.4-0.1 0-0.1 0.2-0.1 0.3-0.1 0.3 0.1 0.6 0.1 0.9 0.2 0.2 0.1 0.5 0.1 0.6-0.1 0.1-0.1 0.2-0.2 0.4-0.1 0.2 0.1 0.3 0.1 0.5 0 0.1 0 0.2 0 0.2 0 0.3 0.1 0.5 0.1 0.8 0.2 0.4 0.1 0.4 0.1 0.7-0.2 0.1-0.1 0.3-0.1 0.4 0 0.1 0.2 0.1 0.3 0.1 0.5 0.1 0 0.1 0 0.2-0.1 0-0.2 0.1-0.2 0.3-0.3 0.1 0.1 0.1 0.1 0.2 0.1 0.2 0.2 0.3 0.2 0.4-0.1 0-0.1 0-0.2 0.1-0.2 0.1 0 0.2 0.1 0.2 0.1 0.1 0.2 0.3 0.3 0.4 0.5 0.2 0.2 0.5 0.2 0.6 0 0.1-0.1 0.2-0.1 0.3-0.1 0-0.1 0-0.2 0-0.3 0.3 0.2 0.2 0.2 0.1 0.2zM37.4 23.8c0.3 0.1 0.5 0.1 0.6-0.1-0.2 0.1-0.4-0.1-0.6 0.1z" fill="#007bff" fill-rule="nonzero" stroke="none" stroke-width="1" stroke-linecap="butt" stroke-linejoin="miter" stroke-miterlimit="10" stroke-dasharray="" stroke-dashoffset="0" font-family="none" font-weight="none" font-size="none" text-anchor="none" style="mix-blend-mode: normal" data-fill-palette-color="tertiary"></path></g><g transform="matrix(1,0,0,1,64,107.52467837857856)"><svg viewBox="0 0 192 144.9506432428429" height="144.9506432428429" width="192"><g><svg viewBox="0 0 192 144.9506432428429" height="144.9506432428429" width="192"><g transform="matrix(1,0,0,1,0,92.76100959215313)"><svg viewBox="0 0 192 52.18963365068976" height="52.18963365068976" width="192"><g id="textblocktransform"><svg viewBox="0 0 192 52.18963365068976" height="52.18963365068976" width="192" id="textblock"><g><svg viewBox="0 0 192 32.41431835491242" height="32.41431835491242" width="192"><g transform="matrix(1,0,0,1,0,0)"><svg width="192" viewBox="0.75 -29.6 196.93 33.25" height="32.41431835491242" data-palette-color="#333333"><g class="wordmark-text-0" data-fill-palette-color="primary" id="text-0"><path d="M0.85-16.95L0.85-16.95 0.75-17.75Q0.95-19.85 3.18-21.9 5.4-23.95 8.8-25.8 12.2-27.65 19.6-28.9L19.6-28.9Q23.8-29.55 26.63-29.55 29.45-29.55 31.6-29.08 33.75-28.6 35.15-27.2 36.55-25.8 36.55-23.88 36.55-21.95 34.93-20.25 33.3-18.55 30.85-17.65L30.85-17.65Q26.1-15.9 21.75-15.7L21.75-15.7Q23.9-14.4 25.3-13.43 26.7-12.45 28.3-10.85 29.9-9.25 30.35-8.1 30.8-6.95 30.8-6.05L30.8-6.05Q30.8-3.1 28.55-0.4L28.55-0.4Q27.05 1.45 24.38 2.55 21.7 3.65 18.7 3.65L18.7 3.65Q12.3 3.65 11.7-0.85L11.7-0.85Q11.6-0.95 11.6-1.15L11.6-1.15Q9.7 1.9 8.45 1.9L8.45 1.9Q8.1 1.9 7.33 1.73 6.55 1.55 6.53 1.35 6.5 1.15 6.5 0.5 6.5-0.15 7.45-2.63 8.4-5.1 9.6-7.5L9.6-7.5Q11.95-12 14.25-16.2L14.25-16.2Q14.65-17.1 14.65-17.55 14.65-18 14.6-18.25L14.6-18.25Q14.8-19.65 17.03-21.93 19.25-24.2 21.05-24.2L21.05-24.2Q21.65-24.2 22.65-23.75 23.65-23.3 23.85-22.5L23.85-22.5Q23.9-22.15 23.88-22.08 23.85-22 23.6-22.1 23.35-22.2 23.3-22.2L23.3-22.2Q21.7-22.2 19.48-19.83 17.25-17.45 15.2-14L15.2-14Q10.95-7 9.1-2.5L9.1-2.5Q8.7-1.5 8.7-0.95L8.7-0.95Q8.7-0.2 9.35-0.2 10-0.2 11.1-1.58 12.2-2.95 12.65-2.93 13.1-2.9 13.38-2.65 13.65-2.4 13.75-2.13 13.85-1.85 13.9-1.35 13.95-0.85 14-0.7L14-0.7Q14.8 2.85 19.05 2.85L19.05 2.85Q19.15 2.85 19.25 2.85L19.25 2.85Q22.7 2.85 25.15 1.25L25.15 1.25Q27.85-0.55 27.85-3.23 27.85-5.9 25.35-8.85L25.35-8.85Q24.55-9.75 23-11.1L23-11.1Q19.7-13.95 19.6-14.75 19.5-15.55 20.28-16.07 21.05-16.6 21.7-16.6L21.7-16.6Q24.15-16.6 28.4-18.35L28.4-18.35Q34.65-20.9 35.1-24L35.1-24Q35.1-24.2 35.1-24.3L35.1-24.3Q35.1-25.2 34.3-26L34.3-26Q32.95-27.45 28.6-27.45L28.6-27.45Q22.65-27.45 14.75-25.3L14.75-25.3Q9.95-24 6.3-21.6L6.3-21.6Q2.3-18.95 2.3-15.95L2.3-15.95Q2.3-15.3 2.7-14.68 3.1-14.05 3.63-13.78 4.15-13.5 5-13.18 5.85-12.85 6.23-12.68 6.6-12.5 6.48-12.25 6.35-12 5.75-12.1L5.75-12.1Q4.1-12.2 2.45-13.48 0.8-14.75 0.8-16.45L0.8-16.45Q0.8-16.7 0.85-16.95ZM58.2-7Q57.45-5.65 55.5-3.55 53.55-1.45 52-0.3L52-0.3Q50 1.15 47.65 1.15L47.65 1.15Q47.2 1.15 46.47 0.73 45.75 0.3 45.5-0.5 45.25-1.3 45.25-2.05L45.25-2.05Q45.25-4.65 46.25-7.2L46.25-7.2Q46.1-7.1 44.87-5.08 43.65-3.05 41.87-1.25 40.1 0.55 38.3 0.55L38.3 0.55Q37.45 0.55 36.35 0.1L36.35 0.1Q34.35-0.8 34.35-3.2L34.35-3.2Q34.35-6.15 36.37-9.28 38.4-12.4 38.95-12.6L38.95-12.6Q39.7-12.8 40.37-12.8 41.05-12.8 41.75-12.53 42.45-12.25 41.55-11.6L41.55-11.6Q38.1-8.45 36.65-4.6L36.65-4.6Q36.1-3.1 36.1-2.08 36.1-1.05 36.62-0.75 37.15-0.45 37.65-0.45L37.65-0.45Q38.85-0.45 40.92-2.13 43-3.8 46.65-9.1L46.65-9.1Q47.15-9.85 48.4-12.03 49.65-14.2 49.9-14.6L49.9-14.6Q50.7-14.6 51.77-14.23 52.85-13.85 52.5-13.25L52.5-13.25Q50.1-9.25 49.12-7.35 48.15-5.45 47.8-2.9L47.8-2.9Q47.75-2.45 47.75-1.75 47.75-1.05 48.15-0.6L48.15-0.6Q48.9 0.2 50.22-0.53 51.55-1.25 53.85-3.33 56.15-5.4 57.55-7.4L57.55-7.4Q57.75-7.65 58.02-7.53 58.3-7.4 58.3-7.28 58.3-7.15 58.2-7L58.2-7ZM70.05-10.6L70.05-10.6Q66.5-11.7 64.67-11.7 62.85-11.7 61.2-10.18 59.55-8.65 58.2-6.75L58.2-6.75Q57.4-5.8 57.1-6.05 56.8-6.3 57.15-6.85L57.15-6.85 60.5-11.45Q61.45-12.8 62.85-13.55L62.85-13.55Q63.3-13.8 63.7-13.8 64.1-13.8 64.55-13.78 65-13.75 65.32-13.73 65.65-13.7 66.7-13.43 67.75-13.15 67.95-13.1L67.95-13.1 71.8-12.2Q72.6-12.95 73.52-13.3 74.45-13.65 74.95-13.65 75.45-13.65 75.7-13.1L75.7-13.1Q75.75-11.9 74.32-11.05 72.9-10.2 72.27-10.2 71.65-10.2 71.4-10.25L71.4-10.25Q67.05-6.7 64.4-4.35 61.75-2 61.45-1.75L61.45-1.75 62.95-1Q66.4 1 68.15 1L68.15 1Q69.3 1 70.7 0.2 72.1-0.6 74.7-3.03 77.3-5.45 78.7-7.4L78.7-7.4Q78.95-7.75 79.27-7.63 79.6-7.5 79.6-7.4L79.6-7.4Q79.6-6.7 76.52-3.55 73.45-0.4 71.95 0.7L71.95 0.7Q69.45 2.55 67.1 2.55 64.75 2.55 61.65 0.6L61.65 0.6Q60.5-0.1 59.7-0.35L59.7-0.35Q57.45 1.35 56.3 1.35L56.3 1.35Q56 1.35 55.75 1.25L55.75 1.25Q55.4 0.9 55.4 0.3 55.4-0.3 56-1.05L56-1.05Q56.95-2.35 58.8-2.35L58.8-2.35Q59.7-2.35 60.75-2L60.75-2Q62.15-3.15 62.3-3.35L62.3-3.35Q64.8-5.5 70.05-10.6ZM91.14-10.6L91.14-10.6Q87.59-11.7 85.77-11.7 83.94-11.7 82.29-10.18 80.64-8.65 79.29-6.75L79.29-6.75Q78.49-5.8 78.19-6.05 77.89-6.3 78.24-6.85L78.24-6.85 81.59-11.45Q82.54-12.8 83.94-13.55L83.94-13.55Q84.39-13.8 84.79-13.8 85.19-13.8 85.64-13.78 86.09-13.75 86.42-13.73 86.74-13.7 87.79-13.43 88.84-13.15 89.04-13.1L89.04-13.1 92.89-12.2Q93.69-12.95 94.62-13.3 95.54-13.65 96.04-13.65 96.54-13.65 96.79-13.1L96.79-13.1Q96.84-11.9 95.42-11.05 93.99-10.2 93.37-10.2 92.74-10.2 92.49-10.25L92.49-10.25Q88.14-6.7 85.49-4.35 82.84-2 82.54-1.75L82.54-1.75 84.04-1Q87.49 1 89.24 1L89.24 1Q90.39 1 91.79 0.2 93.19-0.6 95.79-3.03 98.39-5.45 99.79-7.4L99.79-7.4Q100.04-7.75 100.37-7.63 100.69-7.5 100.69-7.4L100.69-7.4Q100.69-6.7 97.62-3.55 94.54-0.4 93.04 0.7L93.04 0.7Q90.54 2.55 88.19 2.55 85.84 2.55 82.74 0.6L82.74 0.6Q81.59-0.1 80.79-0.35L80.79-0.35Q78.54 1.35 77.39 1.35L77.39 1.35Q77.09 1.35 76.84 1.25L76.84 1.25Q76.49 0.9 76.49 0.3 76.49-0.3 77.09-1.05L77.09-1.05Q78.04-2.35 79.89-2.35L79.89-2.35Q80.79-2.35 81.84-2L81.84-2Q83.24-3.15 83.39-3.35L83.39-3.35Q85.89-5.5 91.14-10.6ZM125.04-25.2L125.04-25.2Q125.04-28 122.09-28L122.09-28Q119.54-28 115.47-25.6 111.39-23.2 107.09-18.28 102.79-13.35 101.09-7.95L101.09-7.95Q100.39-5.8 100.39-3.98 100.39-2.15 101.44-0.8L101.44-0.8Q103.29 1.6 107.49 1.65L107.49 1.65Q107.79 1.65 108.04 1.65L108.04 1.65Q112.69 1.65 118.09-0.73 123.49-3.1 126.74-7.7L126.74-7.7Q126.99-8.05 127.27-7.85 127.54-7.65 127.54-7.5 127.54-7.35 127.44-7.25L127.44-7.25Q123.74-2.2 118.34 0.35 112.94 2.9 107.89 2.9L107.89 2.9Q102.59 2.9 99.89-0.1L99.89-0.1Q98.14-2.05 98.14-5.2L98.14-5.2Q98.14-10.5 102.14-16.6L102.14-16.6Q107.59-24.9 115.34-28.1L115.34-28.1Q118.34-29.3 121.09-29.3L121.09-29.3Q124.49-29.3 125.94-27.7L125.94-27.7Q126.89-26.6 126.89-25.15L126.89-25.15Q126.89-22.4 123.99-19.5 121.09-16.6 117.57-14.88 114.04-13.15 111.44-12.9L111.44-12.9Q110.39-12.8 110.44-13.45L110.44-13.45Q110.49-14.35 111.69-14.45L111.69-14.45Q115.69-14.8 119.04-16.88 122.39-18.95 124.19-22.4L124.19-22.4Q125.04-23.75 125.04-25.2ZM130.69-13.85L130.69-13.85Q131.94-13.85 132.19-13.05L132.19-13.05Q132.29-12.6 132.06-12.18 131.84-11.75 131.74-11.5 131.64-11.25 131.59-11.1L131.59-11.1Q131.34-10.6 131.09-10.15L131.09-10.15Q128.24-4.45 128.09-2.9L128.09-2.9Q128.04-2.45 128.04-1.75 128.04-1.05 128.44-0.6L128.44-0.6Q129.14 0.2 130.44-0.5 131.74-1.2 134.06-3.3 136.39-5.4 137.84-7.4L137.84-7.4Q138.04-7.65 138.29-7.53 138.54-7.4 138.54-7.28 138.54-7.15 138.44-7L138.44-7Q137.69-5.65 135.74-3.55L135.74-3.55Q132.54-0.1 130.39 0.7L130.39 0.7Q129.14 1.15 128.29 1.15L128.29 1.15Q126.29 1.15 125.64-0.75L125.64-0.75Q125.54-1.1 125.54-1.6L125.54-1.6Q125.54-3.35 127.14-6.9L127.14-6.9Q126.89-6.35 125.19-4.4L125.19-4.4Q124.74-3.9 124.49-4.4L124.49-4.4Q124.44-4.5 124.44-4.67 124.44-4.85 124.64-5.1L124.64-5.1Q127.09-8.15 128.49-10.25L128.49-10.25Q128.39-10.5 128.59-10.9L128.59-10.9Q129.59-13.7 130.34-13.85L130.34-13.85Q130.49-13.85 130.69-13.85ZM134.64-20.5L134.64-20.5 134.24-18.9Q134.24-18.45 133.59-17.45 132.94-16.45 132.59-16.45L132.59-16.45Q130.44-16.45 130.44-17.5L130.44-17.5Q130.44-17.7 132.59-19.35L132.59-19.35 133.44-20Q134.24-20.7 134.44-20.7 134.64-20.7 134.64-20.5ZM143.79 1.25L143.79 1.25Q141.24 1.25 141.24-1.83 141.24-4.9 145.64-9.4L145.64-9.4Q145.99-9.75 146.14-9.95L146.14-9.95 146.49-10.45Q147.19-11.4 147.14-11.65L147.14-11.65 146.99-12.1Q146.79-12.7 145.34-12.98 143.89-13.25 142.99-13.25L142.99-13.25Q138.49-6.9 137.79-6 137.09-5.1 136.84-5.25 136.59-5.4 136.59-5.6 136.59-5.8 136.89-6.2L136.89-6.2Q139.59-9.5 141.54-13.25L141.54-13.25Q140.94-13.35 140.64-13.68 140.34-14 140.59-14.78 140.84-15.55 142.11-16.85 143.39-18.15 144.34-18.6 145.29-19.05 145.54-19.15 145.79-19.25 146.09-19.25L146.09-19.25Q146.69-19.25 145.69-17.45L145.69-17.45 143.74-14.35Q145.99-14.2 147.59-14.2L147.59-14.2 149.34-14.25Q150.19-14.25 150.59-14.03 150.99-13.8 150.79-13.25L150.79-13.25Q150.44-12.3 149.04-10.7L149.04-10.7Q146.04-7.2 144.54-3.25L144.54-3.25Q144.19-2.3 144.19-1.6L144.19-1.6Q144.19-0.15 145.24-0.15L145.24-0.15Q145.59-0.15 146.56-0.7 147.54-1.25 149.84-3.33 152.14-5.4 153.54-7.4L153.54-7.4Q153.74-7.65 154.01-7.53 154.29-7.4 154.29-7.28 154.29-7.15 154.19-7L154.19-7Q153.44-5.65 151.49-3.55 149.54-1.45 147.69-0.15L147.69-0.15Q145.89 1.25 143.79 1.25ZM165.48-11L165.48-11 165.73-12Q165.73-13 164.98-13L164.98-13Q162.93-13 159.38-9.8 155.83-6.6 154.88-3.35L154.88-3.35Q154.63-2.5 154.63-1.83 154.63-1.15 154.93-0.7L154.93-0.7Q155.53 0.2 156.78 0.2 158.03 0.2 159.48-0.15L159.48-0.15Q162.68-1.05 164.81-2.73 166.93-4.4 169.28-7.4L169.28-7.4Q169.48-7.65 169.76-7.55 170.03-7.45 170.03-7.28 170.03-7.1 169.88-6.75L169.88-6.75Q167.48-3.5 164.86-1.48 162.23 0.55 158.78 1.15L158.78 1.15Q157.78 1.3 156.93 1.3L156.93 1.3Q154.48 1.3 153.21 0.1 151.93-1.1 151.93-2.55 151.93-4 152.63-5.7L152.63-5.7Q153.88-8.55 157.98-11.55 162.08-14.55 164.48-14.55L164.48-14.55Q165.08-14.55 165.63-14.4L165.63-14.4Q167.03-13.9 167.03-12.8L167.03-12.8Q167.03-12.05 166.48-11.1 165.93-10.15 165.66-10.43 165.38-10.7 165.48-11ZM186.03-25.5L186.03-25.5Q186.63-26.6 186.63-27.2L186.63-27.2Q186.63-28.25 185.78-28.25L185.78-28.25Q185.08-28.25 184.03-27.45L184.03-27.45Q180.03-24.35 176.28-17.65L176.28-17.65Q173.28-12.25 171.88-8.4L171.88-8.4Q175.33-10.75 179.61-16.05 183.88-21.35 186.03-25.5ZM171.13-6.4L171.13-6.4Q170.53-4.7 170.48-4.13 170.43-3.55 170.43-2.58 170.43-1.6 170.93-0.8L170.93-0.8Q171.78 0.55 173.78-0.6L173.78-0.6Q175.28-1.4 177.58-3.53 179.88-5.65 181.13-7.4L181.13-7.4Q181.23-7.55 181.43-7.55L181.43-7.55Q181.88-7.55 181.68-6.9L181.68-6.9Q180.93-5.55 178.91-3.45 176.88-1.35 175.23-0.13 173.58 1.1 171.93 1.1L171.93 1.1Q168.13 1.1 168.13-2.6L168.13-2.6Q168.13-2.75 168.13-2.9L168.13-2.9Q168.33-6.4 171.68-13.48 175.03-20.55 177.73-24.15L177.73-24.15 179.28-26.1Q179.83-26.75 180.88-27.7L180.88-27.7Q182.88-29.6 185.01-29.6 187.13-29.6 187.88-28.3L187.88-28.3Q188.13-27.85 188.13-27 188.13-26.15 187.38-24.6L187.38-24.6Q182.23-15.65 171.13-6.4ZM191.98-14.55L191.98-14.55Q194.68-14.55 194.68-11.95L194.68-11.95Q194.68-10.6 193.93-9.75L193.93-9.75Q192.68-7.9 189.88-6.53 187.08-5.15 185.13-5L185.13-5Q184.43-4.95 184.38-5.4L184.38-5.4Q184.33-5.6 184.5-5.65 184.68-5.7 184.78-5.7L184.78-5.7Q185.93-5.8 187.73-6.8L187.73-6.8Q191.08-8.6 192.63-10.5L192.63-10.5Q193.28-11.4 193.28-12.23 193.28-13.05 192.48-13.05L192.48-13.05Q191.83-13.05 190.73-12.5L190.73-12.5Q188.38-11.4 185.78-8.68 183.18-5.95 182.38-3.35L182.38-3.35Q182.13-2.55 182.13-1.78 182.13-1 182.78-0.3 183.43 0.4 184.78 0.4L184.78 0.4Q186.28 0.4 188.23-0.4L188.23-0.4Q193.88-2.7 196.93-7.35L196.93-7.35Q197.23-7.75 197.48-7.5L197.48-7.5Q197.68-7.4 197.68-7.25 197.68-7.1 197.53-6.9L197.53-6.9Q196.03-4.4 193.73-2.45L193.73-2.45Q189.28 1.35 185.08 1.35L185.08 1.35Q181.48 1.35 180.03-0.8L180.03-0.8Q179.48-1.65 179.48-2.85 179.48-4.05 180.13-5.7L180.13-5.7Q181.38-8.55 185.48-11.55 189.58-14.55 191.98-14.55Z" fill="#333333" data-fill-palette-color="primary"></path></g></svg></g></svg></g><g transform="matrix(1,0,0,1,9.599999999999994,40.06656097486672)"><svg viewBox="0 0 182.4 12.123072675823037" height="12.123072675823037" width="182.4"><g transform="matrix(1,0,0,1,0,0)"><svg width="182.4" viewBox="2.25 -37 724.37 48.15" height="12.123072675823037" data-palette-color="#007bff"><path d="M13.5-1.1L13.5-1.1Q16.85-1.1 18.93-2.75 21-4.4 21-7.6L21-7.6Q21-10.15 19.45-11.88 17.9-13.6 14.05-14.65L14.05-14.65 10.6-15.65Q6.8-16.7 4.8-19.2 2.8-21.7 2.8-25.3L2.8-25.3Q2.8-27.7 3.93-29.8 5.05-31.9 7.38-33.2 9.7-34.5 13.3-34.5L13.3-34.5Q17.3-34.5 19.75-33.02 22.2-31.55 23.15-29.2 24.1-26.85 23.6-24.15L23.6-24.15 19.4-23.25Q20.05-27.9 18.48-30.4 16.9-32.9 13.05-32.9L13.05-32.9Q10-32.9 8.25-31.28 6.5-29.65 6.5-26.55L6.5-26.55Q6.5-24.1 7.9-22.38 9.3-20.65 12.85-19.65L12.85-19.65 16.3-18.65Q24.65-16.35 24.65-8.9L24.65-8.9Q24.65-6.25 23.43-4.13 22.2-2 19.73-0.75 17.25 0.5 13.5 0.5L13.5 0.5Q10.9 0.5 8.53-0.3 6.15-1.1 4.48-3.05 2.8-5 2.25-8.45L2.25-8.45 5.25-9.45Q5.5-6.15 6.7-4.35 7.9-2.55 9.7-1.83 11.5-1.1 13.5-1.1ZM43.05-5.8L45.65-5.1Q44.9-2.2 43.3-0.85 41.7 0.5 39.2 0.5L39.2 0.5Q36.8 0.5 35.3-0.58 33.8-1.65 33.1-3.4 32.4-5.15 32.4-7.05L32.4-7.05 32.4-20.7Q32.4-22.45 32.27-22.75 32.15-23.05 31.3-23.15L31.3-23.15 28.55-23.4 28.55-24.75 32.4-24.75 32.4-31.3 36.5-32.15 36.5-24.75 44.65-24.75 44.65-23.15 36.5-23.15 36.5-6.65Q36.5-3.5 37.37-2.3 38.25-1.1 39.7-1.1L39.7-1.1Q41.15-1.1 41.92-2.2 42.7-3.3 43.05-5.8L43.05-5.8ZM69.09 0.35L69.09 0.35Q65.2 0.35 64.5-3.25L64.5-3.25Q62.75-1.25 60.65-0.38 58.55 0.5 56.5 0.5L56.5 0.5Q53 0.5 51.35-1.45 49.7-3.4 49.7-6.15L49.7-6.15Q49.7-9.1 51.72-10.83 53.75-12.55 58.75-12.55L58.75-12.55 64.4-12.55 64.4-16.6Q64.4-20.6 63.02-22.13 61.65-23.65 59.3-23.65L59.3-23.65Q57.8-23.65 56.6-23.05 55.4-22.45 54.87-20.88 54.35-19.3 54.75-16.3L54.75-16.3 50.8-16.9Q50.55-19.25 51.42-21.13 52.3-23 54.32-24.13 56.35-25.25 59.4-25.25L59.4-25.25Q63.05-25.25 65-24.03 66.95-22.8 67.72-20.85 68.5-18.9 68.5-16.6L68.5-16.6 68.5-5.35Q68.5-2.8 69.07-2.15 69.65-1.5 70.34-1.5L70.34-1.5Q70.8-1.5 71.3-1.73 71.8-1.95 72.4-2.45L72.4-2.45 73.3-1.2Q72.55-0.55 71.52-0.1 70.5 0.35 69.09 0.35ZM57.9-1.6L57.9-1.6Q59.3-1.6 60.92-2.38 62.55-3.15 64.4-5.5L64.4-5.5 64.4-10.95 59.3-10.95Q56.5-10.95 55.22-9.83 53.95-8.7 53.95-6.35L53.95-6.35Q53.95-4.1 54.92-2.85 55.9-1.6 57.9-1.6ZM94.64-21.05L86.44 2.5Q85.34 5.55 84.04 7.48 82.74 9.4 80.94 10.28 79.14 11.15 76.44 11.15L76.44 11.15 76.44 7.15Q80.04 7.15 81.89 6.03 83.74 4.9 84.84 1.85L84.84 1.85 85.49 0 84.04 0 76.69-21Q76.19-22.45 75.94-22.73 75.69-23 74.89-23.1L74.89-23.1 72.34-23.4 72.34-24.75 83.74-24.75 83.74-23.4 81.19-23.1Q80.49-23.05 80.39-22.75 80.29-22.45 80.79-21L80.79-21 86.79-3.7 92.84-21.05Q93.29-22.5 93.22-22.75 93.14-23 92.39-23.1L92.39-23.1 89.79-23.4 89.79-24.75 98.94-24.75 98.94-23.4 96.39-23.1Q95.64-23 95.39-22.75 95.14-22.5 94.64-21.05L94.64-21.05ZM117.79-30.35L117.79-30.35Q116.59-30.35 115.81-31.13 115.04-31.9 115.04-33.15L115.04-33.15Q115.04-34.35 115.81-35.1 116.59-35.85 117.79-35.85L117.79-35.85Q118.99-35.85 119.76-35.1 120.54-34.35 120.54-33.15L120.54-33.15Q120.54-31.9 119.76-31.13 118.99-30.35 117.79-30.35ZM114.69-23.15L111.94-23.4 111.94-24.75 119.89-24.75 119.89-4.05Q119.89-2.3 120.04-2 120.19-1.7 120.99-1.6L120.99-1.6 123.74-1.3 123.74 0 111.94 0 111.94-1.3 114.69-1.6Q115.49-1.7 115.64-2 115.79-2.3 115.79-4.05L115.79-4.05 115.79-20.7Q115.79-22.45 115.64-22.75 115.49-23.05 114.69-23.15L114.69-23.15ZM152.09-1.6L154.84-1.3 154.84 0 143.04 0 143.04-1.3 145.79-1.6Q146.59-1.7 146.74-2 146.89-2.3 146.89-4.05L146.89-4.05 146.89-16.5Q146.89-20.2 145.69-21.73 144.49-23.25 142.24-23.25L142.24-23.25Q140.59-23.25 138.59-22.25 136.59-21.25 134.84-18.35L134.84-18.35 134.84-4.05Q134.84-2.3 134.99-2 135.14-1.7 135.94-1.6L135.94-1.6 138.69-1.3 138.69 0 126.89 0 126.89-1.3 129.64-1.6Q130.44-1.7 130.59-2 130.74-2.3 130.74-4.05L130.74-4.05 130.74-20.7Q130.74-22.45 130.59-22.75 130.44-23.05 129.64-23.15L129.64-23.15 126.89-23.4 126.89-24.75 134.59-24.75 134.59-20.7Q136.39-23.1 138.66-24.18 140.94-25.25 143.24-25.25L143.24-25.25Q146.94-25.25 148.96-22.98 150.99-20.7 150.99-16.55L150.99-16.55 150.99-4.05Q150.99-2.3 151.14-2 151.29-1.7 152.09-1.6L152.09-1.6ZM182.98-5.8L185.58-5.1Q184.83-2.2 183.23-0.85 181.63 0.5 179.13 0.5L179.13 0.5Q176.73 0.5 175.23-0.58 173.73-1.65 173.03-3.4 172.33-5.15 172.33-7.05L172.33-7.05 172.33-20.7Q172.33-22.45 172.21-22.75 172.08-23.05 171.23-23.15L171.23-23.15 168.48-23.4 168.48-24.75 172.33-24.75 172.33-31.3 176.43-32.15 176.43-24.75 184.58-24.75 184.58-23.15 176.43-23.15 176.43-6.65Q176.43-3.5 177.31-2.3 178.18-1.1 179.63-1.1L179.63-1.1Q181.08-1.1 181.86-2.2 182.63-3.3 182.98-5.8L182.98-5.8ZM213.28-1.6L216.03-1.3 216.03 0 204.23 0 204.23-1.3 206.98-1.6Q207.78-1.7 207.93-2 208.08-2.3 208.08-4.05L208.08-4.05 208.08-16.5Q208.08-20.2 206.88-21.73 205.68-23.25 203.48-23.25L203.48-23.25Q201.78-23.25 199.78-22.25 197.78-21.25 196.03-18.3L196.03-18.3 196.03-4.05Q196.03-2.3 196.18-2 196.33-1.7 197.13-1.6L197.13-1.6 199.88-1.3 199.88 0 188.08 0 188.08-1.3 190.83-1.6Q191.63-1.7 191.78-2 191.93-2.3 191.93-4.05L191.93-4.05 191.93-32.95Q191.93-34.7 191.78-35 191.63-35.3 190.83-35.4L190.83-35.4 188.08-35.65 188.08-37 196.03-37 196.03-20.95Q197.78-23.2 200.03-24.23 202.28-25.25 204.48-25.25L204.48-25.25Q208.18-25.25 210.18-22.98 212.18-20.7 212.18-16.55L212.18-16.55 212.18-4.05Q212.18-2.3 212.33-2 212.48-1.7 213.28-1.6L213.28-1.6ZM237.58-6.45L240.23-5.7Q239.33-2.3 236.85-0.9 234.38 0.5 231.38 0.5L231.38 0.5Q225.83 0.5 223.08-2.88 220.33-6.25 220.33-11.9L220.33-11.9 220.33-12.9Q220.33-18.5 222.98-21.88 225.63-25.25 230.68-25.25L230.68-25.25Q233.38-25.25 235.6-24.15 237.83-23.05 239.15-20.9 240.48-18.75 240.48-15.55L240.48-15.55Q240.48-14.05 240.18-12.4L240.18-12.4 224.83-12.4 224.83-10.9Q224.83-5.65 226.45-3.38 228.08-1.1 231.73-1.1L231.73-1.1Q234.03-1.1 235.55-2.3 237.08-3.5 237.58-6.45L237.58-6.45ZM230.68-23.65L230.68-23.65Q227.73-23.65 226.28-21.4 224.83-19.15 224.83-14L224.83-14 236.08-14 236.08-14.15Q236.18-14.8 236.23-15.43 236.28-16.05 236.28-16.55L236.28-16.55Q236.28-20.3 234.73-21.98 233.18-23.65 230.68-23.65ZM277.12-2.9L278.57-8.25 279.92-8.25 279.92 0 257.17 0 257.17-1.3 259.92-1.6Q260.72-1.7 260.87-2 261.02-2.3 261.02-4.05L261.02-4.05 261.02-29.95Q261.02-31.7 260.87-32 260.72-32.3 259.92-32.4L259.92-32.4 257.17-32.65 257.17-34 269.22-34 269.22-32.65 266.47-32.4Q265.67-32.3 265.52-32 265.37-31.7 265.37-29.95L265.37-29.95 265.37-1.6 274.42-1.6Q275.62-1.6 276.12-1.68 276.62-1.75 276.8-2.02 276.97-2.3 277.12-2.9L277.12-2.9ZM305.27-12.9L305.27-12.9 305.27-11.9Q305.27-6.25 302.44-2.88 299.62 0.5 294.42 0.5L294.42 0.5Q289.27 0.5 286.44-2.88 283.62-6.25 283.62-11.9L283.62-11.9 283.62-12.9Q283.62-18.5 286.42-21.88 289.22-25.25 294.42-25.25L294.42-25.25Q299.62-25.25 302.44-21.88 305.27-18.5 305.27-12.9ZM300.77-10.9L300.77-13.9Q300.77-19.1 299.14-21.38 297.52-23.65 294.42-23.65L294.42-23.65Q291.37-23.65 289.74-21.38 288.12-19.1 288.12-13.9L288.12-13.9 288.12-10.9Q288.12-5.65 289.74-3.38 291.37-1.1 294.42-1.1L294.42-1.1Q297.52-1.1 299.14-3.38 300.77-5.65 300.77-10.9L300.77-10.9ZM333.12-12.9L333.12-12.9 333.12-11.9Q333.12-6.25 330.29-2.88 327.47 0.5 322.27 0.5L322.27 0.5Q317.12 0.5 314.29-2.88 311.47-6.25 311.47-11.9L311.47-11.9 311.47-12.9Q311.47-18.5 314.27-21.88 317.07-25.25 322.27-25.25L322.27-25.25Q327.47-25.25 330.29-21.88 333.12-18.5 333.12-12.9ZM328.62-10.9L328.62-13.9Q328.62-19.1 326.99-21.38 325.37-23.65 322.27-23.65L322.27-23.65Q319.22-23.65 317.59-21.38 315.97-19.1 315.97-13.9L315.97-13.9 315.97-10.9Q315.97-5.65 317.59-3.38 319.22-1.1 322.27-1.1L322.27-1.1Q325.37-1.1 326.99-3.38 328.62-5.65 328.62-10.9L328.62-10.9ZM340.36-23.15L337.61-23.45 337.61-24.75 345.31-24.75 345.31-20.75Q346.81-23.1 348.69-24.18 350.56-25.25 352.86-25.25L352.86-25.25Q357.16-25.25 359.54-22 361.91-18.75 361.91-12.9L361.91-12.9 361.91-11.9Q361.91-6.2 359.16-2.85 356.41 0.5 351.51 0.5L351.51 0.5Q348.01 0.5 345.56-1.65L345.56-1.65 345.56 6.6Q345.56 8.3 345.71 8.63 345.86 8.95 346.66 9.05L346.66 9.05 350.41 9.3 350.41 10.65 337.61 10.65 337.61 9.3 340.36 9.05Q341.16 8.95 341.31 8.63 341.46 8.3 341.46 6.6L341.46 6.6 341.46-20.7Q341.46-22.45 341.31-22.75 341.16-23.05 340.36-23.15L340.36-23.15ZM352.21-23.45L352.21-23.45Q350.66-23.45 348.99-22.45 347.31-21.45 345.56-18.4L345.56-18.4 345.56-4.1Q347.71-1.15 351.26-1.15L351.26-1.15Q354.51-1.15 355.96-3.63 357.41-6.1 357.41-10.4L357.41-10.4 357.41-14.4Q357.41-19.1 356.06-21.28 354.71-23.45 352.21-23.45ZM411.21-21L411.21-21 405.61 0 402.36 0 395.81-20.65 389.26 0 386.16 0 380.61-21Q380.26-22.45 380.03-22.75 379.81-23.05 379.01-23.15L379.01-23.15 376.46-23.4 376.46-24.75 387.81-24.75 387.81-23.4 385.21-23.15Q384.41-23.05 384.33-22.75 384.26-22.45 384.66-21L384.66-21 388.96-4.5 395.31-24.75 398.56-24.75 405.01-4.2 409.36-21Q409.76-22.45 409.68-22.75 409.61-23.05 408.81-23.15L408.81-23.15 406.21-23.4 406.21-24.75 415.36-24.75 415.36-23.4 412.81-23.15Q412.06-23.05 411.83-22.75 411.61-22.45 411.21-21ZM422.86-30.35L422.86-30.35Q421.66-30.35 420.88-31.13 420.11-31.9 420.11-33.15L420.11-33.15Q420.11-34.35 420.88-35.1 421.66-35.85 422.86-35.85L422.86-35.85Q424.06-35.85 424.83-35.1 425.61-34.35 425.61-33.15L425.61-33.15Q425.61-31.9 424.83-31.13 424.06-30.35 422.86-30.35ZM419.76-23.15L417.01-23.4 417.01-24.75 424.96-24.75 424.96-4.05Q424.96-2.3 425.11-2 425.26-1.7 426.06-1.6L426.06-1.6 428.81-1.3 428.81 0 417.01 0 417.01-1.3 419.76-1.6Q420.56-1.7 420.71-2 420.86-2.3 420.86-4.05L420.86-4.05 420.86-20.7Q420.86-22.45 420.71-22.75 420.56-23.05 419.76-23.15L419.76-23.15ZM445.85-5.8L448.45-5.1Q447.7-2.2 446.1-0.85 444.5 0.5 442 0.5L442 0.5Q439.6 0.5 438.1-0.58 436.6-1.65 435.9-3.4 435.2-5.15 435.2-7.05L435.2-7.05 435.2-20.7Q435.2-22.45 435.08-22.75 434.95-23.05 434.1-23.15L434.1-23.15 431.35-23.4 431.35-24.75 435.2-24.75 435.2-31.3 439.3-32.15 439.3-24.75 447.45-24.75 447.45-23.15 439.3-23.15 439.3-6.65Q439.3-3.5 440.18-2.3 441.05-1.1 442.5-1.1L442.5-1.1Q443.95-1.1 444.73-2.2 445.5-3.3 445.85-5.8L445.85-5.8ZM476.15-1.6L478.9-1.3 478.9 0 467.1 0 467.1-1.3 469.85-1.6Q470.65-1.7 470.8-2 470.95-2.3 470.95-4.05L470.95-4.05 470.95-16.5Q470.95-20.2 469.75-21.73 468.55-23.25 466.35-23.25L466.35-23.25Q464.65-23.25 462.65-22.25 460.65-21.25 458.9-18.3L458.9-18.3 458.9-4.05Q458.9-2.3 459.05-2 459.2-1.7 460-1.6L460-1.6 462.75-1.3 462.75 0 450.95 0 450.95-1.3 453.7-1.6Q454.5-1.7 454.65-2 454.8-2.3 454.8-4.05L454.8-4.05 454.8-32.95Q454.8-34.7 454.65-35 454.5-35.3 453.7-35.4L453.7-35.4 450.95-35.65 450.95-37 458.9-37 458.9-20.95Q460.65-23.2 462.9-24.23 465.15-25.25 467.35-25.25L467.35-25.25Q471.05-25.25 473.05-22.98 475.05-20.7 475.05-16.55L475.05-16.55 475.05-4.05Q475.05-2.3 475.2-2 475.35-1.7 476.15-1.6L476.15-1.6ZM496.55-32.4L493.8-32.65 493.8-34 507.4-34Q512.3-34 514.75-31.73 517.2-29.45 517.2-25.9L517.2-25.9 517.2-24.55Q517.2-21.95 515.65-20.1 514.1-18.25 511.3-17.5L511.3-17.5Q514.8-16.9 516.75-14.85 518.7-12.8 518.7-9.7L518.7-9.7 518.7-8.35Q518.7-4.7 516.17-2.35 513.65 0 508.65 0L508.65 0 493.8 0 493.8-1.3 496.55-1.6Q497.35-1.7 497.5-2 497.65-2.3 497.65-4.05L497.65-4.05 497.65-29.95Q497.65-31.7 497.5-32 497.35-32.3 496.55-32.4L496.55-32.4ZM507.4-32.4L507.4-32.4 502-32.4 502-18.1 507.4-18.1Q512.6-18.1 512.6-24.15L512.6-24.15 512.6-26.2Q512.6-32.4 507.4-32.4ZM508.65-16.5L508.65-16.5 502-16.5 502-1.6 508.65-1.6Q514.1-1.6 514.1-8.05L514.1-8.05 514.1-10.1Q514.1-13.2 512.72-14.85 511.35-16.5 508.65-16.5ZM547.39-1.6L550.14-1.3 550.14 0 542.44 0 542.44-4Q540.69-1.65 538.47-0.58 536.24 0.5 534.04 0.5L534.04 0.5Q530.49 0.5 528.52-1.78 526.54-4.05 526.54-8.2L526.54-8.2 526.54-20.7Q526.54-22.45 526.39-22.75 526.24-23.05 525.44-23.15L525.44-23.15 522.69-23.4 522.69-24.75 530.64-24.75 530.64-8.25Q530.64-4.55 531.77-3.03 532.89-1.5 535.04-1.5L535.04-1.5Q536.64-1.5 538.57-2.5 540.49-3.5 542.19-6.35L542.19-6.35 542.19-20.7Q542.19-22.45 542.04-22.78 541.89-23.1 541.09-23.15L541.09-23.15 537.34-23.4 537.34-24.75 546.29-24.75 546.29-4.05Q546.29-2.3 546.44-2 546.59-1.7 547.39-1.6L547.39-1.6ZM569.64-2.9L570.99-7.15 572.29-7.15 572.29 0 553.84 0 553.84-1.25 567.24-23.15 559.74-23.15Q558.09-23.15 557.72-22.93 557.34-22.7 557.04-21.85L557.04-21.85 555.69-17.6 554.39-17.6 554.39-24.75 571.79-24.75 571.79-23.5 558.49-1.6 566.94-1.6Q568.64-1.6 569.02-1.8 569.39-2 569.64-2.9L569.64-2.9ZM592.69-2.9L594.04-7.15 595.34-7.15 595.34 0 576.89 0 576.89-1.25 590.29-23.15 582.79-23.15Q581.14-23.15 580.76-22.93 580.39-22.7 580.09-21.85L580.09-21.85 578.74-17.6 577.44-17.6 577.44-24.75 594.84-24.75 594.84-23.5 581.54-1.6 589.99-1.6Q591.69-1.6 592.06-1.8 592.44-2 592.69-2.9L592.69-2.9ZM614.38 0.5L614.38 0.5Q608.03 0.5 604.71-3.75 601.38-8 601.38-15.15L601.38-15.15 601.38-18.9Q601.38-23.6 602.81-27.1 604.23-30.6 607.03-32.55 609.83-34.5 613.88-34.5L613.88-34.5Q617.63-34.5 620.08-33.02 622.53-31.55 623.63-29.18 624.73-26.8 624.33-24L624.33-24 620.03-22.95Q620.58-27.75 618.93-30.33 617.28-32.9 613.88-32.9L613.88-32.9Q610.08-32.9 608.11-30.2 606.13-27.5 606.13-21.4L606.13-21.4 606.13-12.65Q606.13-6.5 608.23-3.8 610.33-1.1 614.48-1.1L614.48-1.1Q616.13-1.1 617.63-1.68 619.13-2.25 620.18-3.65 621.23-5.05 621.48-7.55L621.48-7.55 624.58-6.75Q623.48-2.75 620.71-1.13 617.93 0.5 614.38 0.5ZM634.58-30.35L634.58-30.35Q633.38-30.35 632.61-31.13 631.83-31.9 631.83-33.15L631.83-33.15Q631.83-34.35 632.61-35.1 633.38-35.85 634.58-35.85L634.58-35.85Q635.78-35.85 636.56-35.1 637.33-34.35 637.33-33.15L637.33-33.15Q637.33-31.9 636.56-31.13 635.78-30.35 634.58-30.35ZM631.48-23.15L628.73-23.4 628.73-24.75 636.68-24.75 636.68-4.05Q636.68-2.3 636.83-2 636.98-1.7 637.78-1.6L637.78-1.6 640.53-1.3 640.53 0 628.73 0 628.73-1.3 631.48-1.6Q632.28-1.7 632.43-2 632.58-2.3 632.58-4.05L632.58-4.05 632.58-20.7Q632.58-22.45 632.43-22.75 632.28-23.05 631.48-23.15L631.48-23.15ZM646.43-23.15L643.68-23.4 643.68-24.75 651.38-24.75 651.38-20.75Q653.13-23.1 654.9-24.18 656.68-25.25 658.53-25.25L658.53-25.25Q660.13-25.25 661.53-24.3 662.93-23.35 663.88-21.25L663.88-21.25 660.63-19.3Q659.88-21.1 658.93-21.8 657.98-22.5 656.83-22.5L656.83-22.5Q655.58-22.5 654.35-21.7 653.13-20.9 651.63-18.7L651.63-18.7 651.63-4.05Q651.63-2.3 651.78-1.98 651.93-1.65 652.73-1.6L652.73-1.6 656.48-1.3 656.48 0 643.68 0 643.68-1.3 646.43-1.6Q647.23-1.7 647.38-2 647.53-2.3 647.53-4.05L647.53-4.05 647.53-20.7Q647.53-22.45 647.38-22.75 647.23-23.05 646.43-23.15L646.43-23.15ZM677.03-23.65L677.03-23.65Q674.28-23.65 672.75-21.38 671.23-19.1 671.23-13.9L671.23-13.9 671.23-10.9Q671.23-5.65 672.75-3.38 674.28-1.1 677.73-1.1L677.73-1.1Q680.08-1.1 681.53-2.3 682.98-3.5 683.48-6.45L683.48-6.45 686.13-5.7Q685.23-2.3 682.83-0.9 680.43 0.5 677.48 0.5L677.48 0.5Q672.08 0.5 669.4-2.88 666.73-6.25 666.73-11.9L666.73-11.9 666.73-12.9Q666.73-18.5 669.38-21.88 672.03-25.25 677.03-25.25L677.03-25.25Q680.23-25.25 682.35-24 684.48-22.75 685.38-20.63 686.28-18.5 685.88-15.95L685.88-15.95 681.93-15.35Q682.48-19.35 681.2-21.5 679.93-23.65 677.03-23.65ZM692.82-35.4L690.07-35.65 690.07-37 698.02-37 698.02-4.05Q698.02-2.3 698.17-2 698.32-1.7 699.12-1.6L699.12-1.6 701.87-1.3 701.87 0 690.07 0 690.07-1.3 692.82-1.6Q693.62-1.7 693.77-2 693.92-2.3 693.92-4.05L693.92-4.05 693.92-32.95Q693.92-34.7 693.77-35 693.62-35.3 692.82-35.4L692.82-35.4ZM723.72-6.45L726.37-5.7Q725.47-2.3 723-0.9 720.52 0.5 717.52 0.5L717.52 0.5Q711.97 0.5 709.22-2.88 706.47-6.25 706.47-11.9L706.47-11.9 706.47-12.9Q706.47-18.5 709.12-21.88 711.77-25.25 716.82-25.25L716.82-25.25Q719.52-25.25 721.75-24.15 723.97-23.05 725.3-20.9 726.62-18.75 726.62-15.55L726.62-15.55Q726.62-14.05 726.32-12.4L726.32-12.4 710.97-12.4 710.97-10.9Q710.97-5.65 712.6-3.38 714.22-1.1 717.87-1.1L717.87-1.1Q720.17-1.1 721.7-2.3 723.22-3.5 723.72-6.45L723.72-6.45ZM716.82-23.65L716.82-23.65Q713.87-23.65 712.42-21.4 710.97-19.15 710.97-14L710.97-14 722.22-14 722.22-14.15Q722.32-14.8 722.37-15.43 722.42-16.05 722.42-16.55L722.42-16.55Q722.42-20.3 720.87-21.98 719.32-23.65 716.82-23.65Z" opacity="1" transform="matrix(1,0,0,1,0,0)" fill="#007bff" class="slogan-text-1" data-fill-palette-color="secondary" id="text-1"></path></svg></g></svg></g></svg></g></svg></g><g transform="matrix(1,0,0,1,53.245140060122154,0)"><svg viewBox="0 0 85.50971987975569 85.10876697219882" height="85.10876697219882" width="85.50971987975569"><g><svg xmlns="http://www.w3.org/2000/svg" xmlns:xlink="http://www.w3.org/1999/xlink" version="1.1" x="0" y="0" viewBox="15.21697690096974 15.587266567198574 69.54287002186523 69.21678526829187" enable-background="new 0 0 100 100" xml:space="preserve" height="85.10876697219882" width="85.50971987975569" class="icon-icon-0" data-fill-palette-color="accent" id="icon-0"><path d="M63.4 35.6C63.9 35.2 63.8 34.6 63.5 34.2 63 33.4 62 33 61.6 32.2 61.9 31 60.9 30.2 60.9 29 60.3 29.6 60.1 30.4 59.2 30.4 58.5 29.8 58.4 29.2 58.8 28.6L57.8 27.6C57.6 27.4 57.3 27.3 57 27.1 56.8 27 56.6 27 56.4 26.9 55.6 26.6 55.7 26.6 55.5 27.4 55.3 28.1 55.4 29 54.5 29.3 55.3 30.7 55.4 31.4 53.2 32.1 53.2 32.7 53.3 33.3 53.2 33.9 53.2 34.2 52.8 34.4 52.6 34.6 51.6 33.7 51.9 32.7 52.1 31.9 51.4 31.6 50.7 31.3 50.1 30.9 49.7 30.7 49.4 30.3 49.1 30.1S48.4 29.9 48 29.8C47.8 29.4 48.5 28.7 47.4 28.5 47.9 27.1 48.8 26.2 50.1 25.8 50.2 25.8 50.3 25.7 50.4 25.6 50.7 25.3 50.9 25.1 51.4 25.1 51.9 25 52.4 24.6 52.9 24.3 52.7 24.7 52.5 25.1 52.3 25.4 52.4 25.5 52.5 25.7 52.7 26 53 25.8 53.4 25.6 53.7 25.4 54 25.7 54.3 26.1 54.8 25.7 54.2 25 53.6 24.3 53.1 23.7 53.7 23.7 54.2 23.8 54.7 23.7S55.8 23.4 55.2 22.6C56 22.5 56 22.2 55.5 21.7 56.2 21.7 56.7 21.8 57.4 21.8 57.5 22.2 57.7 22.7 58.3 23 59 23.4 59 23.8 58.2 24.3 58 24.4 57.9 24.6 57.7 24.8 57.2 25.3 56.4 24.4 55.7 25.3 56 25.4 56.3 25.6 56.5 25.5 57.6 25.4 57.6 25.5 58.1 26.5 58.3 26.8 58.7 27 59 27.2S59.7 27.6 60.1 27.8C60.2 27.8 60.2 27.7 60.3 27.7 60.1 27.3 59.8 27 59.5 26.4 60 26.8 60.4 27 60.8 27.3 61.2 26.7 61.2 26.3 60.7 25.8 60.3 25.5 60.3 25.1 60.6 24.7 60.9 25.1 61.2 25.5 61.6 25.9L62.8 25C62.1 24.4 61.4 23.9 60.6 23.2 60.9 23.1 61.1 23 61.2 23 61.2 22.8 61.2 22.5 61.1 22.3L59.6 21.1C59.3 20.9 58.9 20.6 58.9 20.2 58.8 19.4 58.2 19.5 57.7 19.3 57.6 19.3 57.6 19.4 57.5 19.4 57.6 19.6 57.8 19.9 57.9 20.1H57.3V19.2C56.9 19.2 56.4 19.1 56 19.2 55.7 19.3 55.5 19.8 55.2 20.1 54.9 19.4 55.6 19.2 56.1 19 55.3 18.6 54.1 19 53.8 19.7 53.7 19.9 53.6 20.3 53.7 20.5S54.1 20.8 54.3 20.9 54.7 21 55 21.1C54.4 21.6 53.9 22.1 53.2 22.7 53.2 22.5 53.1 22.2 53.1 22S53.2 21.5 53.3 21.3C53.2 21.3 53.2 21.2 53.1 21.2 52.9 21.3 52.7 21.5 52.5 21.7 52.6 21.4 52.6 21.2 52.7 21 52.6 21 52.4 20.9 52.4 20.9 52.5 20.4 52.6 19.9 52.7 19.2 53.2 19 53.9 18.8 54.7 18.5 53.5 17.7 52.6 18.1 52.1 19.3 52.1 19.2 52 19.2 52 19.1 52.1 18.7 52.3 18.4 52.4 18 51.6 17.7 51.1 17.8 51 18.5 50.9 18.4 50.8 18.3 50.7 18.3S50.4 18.3 50.3 18.4C50.3 18.5 50.3 18.7 50.4 18.8 50.5 19 50.7 19.3 50.9 19.5 51.1 19.5 51.4 19.4 51.8 19.3 51.5 19.6 51.3 19.8 51.2 20.1 51 20.7 51 21 51 21 51.5 21.2 51.4 21.7 51.2 21.8 50.9 22.1 50.4 22.3 50 21.9 50 21.9 49.9 21.8 49.9 21.7 50.2 21.7 50.4 21.7 50.9 21.6 50.7 21.2 50.5 20.9 50.4 20.7 50 20.9 49.7 21 49.4 21.2 49.6 21.3 49.7 21.4 49.8 21.5 49 22.1 48.2 22.2 47.3 21.6 47.2 21.5 47.1 21.3 47 21.2S46.8 20.9 46.6 20.7C47.2 20.5 48.1 21.8 48.6 20.5 48.8 20.5 49 20.5 49.2 20.6 49.2 20.5 49.3 20.5 49.3 20.4 49.1 20.1 48.9 19.8 48.5 19.5L50 18C49.5 18.1 49.1 18 48.7 18.2S48.1 18.8 47.7 19.1C47.8 18.8 47.8 18.6 47.9 18.4 47.3 18.6 46.7 18.2 46.5 17.6 45 16.9 44 17.9 42.8 18.5 42.7 18.6 42.7 18.8 42.6 19.2 43.3 19 43.9 18.8 44.6 18.5L44 19.4C44.5 19.5 44.9 19.5 45.4 19.5V19.7H44.4C44.2 19.7 43.9 19.9 43.7 20L44.3 20.6V21C44.9 21 45.4 20.9 46 20.9 46 21.1 45.8 21.6 46.4 21.2 46.1 21.5 45.8 21.7 45.5 21.9 45.2 20.7 43.9 21.9 43.3 21.2 43.6 21.1 43.8 21.1 44 21 44 20.9 44 20.9 44.1 20.8 43.7 20.7 43.2 20.5 42.8 20.4 42.4 20.2 42.1 19.6 41.5 20.3V19.8C41.2 20 41 20.1 40.8 20.3 40.9 20 41 19.8 41 19.6 40.9 19.6 40.9 19.5 40.9 19.5 40.1 19.7 39.2 19.8 38.5 20.1 37.4 20.6 36.5 19.8 35.5 19.9 35.1 19.9 34.7 19.8 34.3 19.7 38.1 17.2 47.2 14.3 56.7 16.2L56.4 16.8C56.8 16.9 57.2 17.1 57.6 17.2 57.2 17.3 56.8 17.4 56.4 17.6 56.6 17.7 56.8 17.8 56.9 17.9V18H55.9L56.3 17.6C55.8 17.4 55.2 17.2 54.7 17 54.7 17.1 54.6 17.1 54.6 17.2 54.8 17.3 55.1 17.5 55.3 17.6 55.2 17.7 55.1 17.9 54.9 18.1 54.9 18.2 55 18.3 55 18.3 56 18.6 57.1 18.8 58.1 19.1 58.5 19.2 58.8 19.1 58.6 18.6 59.7 18.5 60.8 17.7 62 18.2 61.8 18.2 61.7 18.2 61.6 18.3 61.7 18.5 61.6 18.8 61.8 19 62 19.3 62.3 19.5 62.7 19.6 63.9 19.9 65 20.3 65.4 21.6 65.5 22 65.4 22.5 65.6 22.9 65.7 23.2 66.2 23.2 66.6 23.4 66.6 23.5 66.5 23.5 66.5 23.6 66.3 23.5 66.1 23.5 65.9 23.4 65.5 24.1 65.5 24.1 67 24.3 66.9 24.5 66.9 24.6 66.8 24.7 66.4 25 65.8 25 66 25.8 66.1 26.3 66.2 26.8 66.3 27.2 66.5 27.8 66.8 28.4 67.1 29 67.3 29.5 67.5 30 68.2 30 68.4 30 68.7 30.4 68.9 30.7 69 30.8 69.1 30.8 69.2 30.8 69.5 29.9 69.8 29.1 70.1 28.3 70.2 28 70.4 27.8 70.7 27.9 71.2 28 71.7 28 72.1 27.4 72.2 27.3 72.5 27.2 72.7 27.2 73 27.2 73.3 27.3 73.6 27.3 73.8 27.3 74.1 27.2 74.2 27.1 74.3 26.9 74.2 26.6 74.1 26.4 73.9 25.9 73.7 25.3 73.6 24.7 74.2 25.3 74.9 25.9 75.5 26.6 77.2 28.5 78.8 30.4 80 32.7 80.5 33.6 80.8 34.6 81.2 35.6 81.3 35.9 81.6 36.2 81.8 36.5 81.9 36.6 81.9 36.7 82 36.8 82.2 37.4 82.4 38.1 82.7 38.7 82.4 38.5 82.1 38.5 82.1 39.1S81.8 40.2 81 40.4C81.6 41.2 82.1 41.9 81.9 43L81 42.7C80.8 42.7 80.5 42.9 80.5 42.9 80.5 43.7 80.6 44.5 80.7 45.3 80.7 45.5 80.8 45.8 81 46 81.1 46.2 81.4 46.3 81.6 46.5 82.5 46.4 82.6 45.8 82.6 44.9 82.6 44.4 82.8 43.9 83 43.4 83.2 43.4 83.4 43.3 83.6 43.2 84.1 44.8 85 46.4 84.7 48.4 84.5 48.1 84.3 48 84.3 47.8 84.2 47.6 84.3 47.4 84.3 47.2 84.2 46.9 84.2 46.4 84 46.4 83.6 46.3 83.1 46.3 82.9 46.6 82.5 47 82.1 47 81.8 46.7 81.6 47.1 81.3 47.5 81.1 47.8 80.9 48.2 80.9 48.6 80.8 49S80.6 49.8 80.4 50.1C79.4 51 79.2 52.3 78.7 53.4 78.6 53.6 78.8 54 78.8 54.2 78.7 54.9 78.5 55.7 78.4 56.4 78.4 56.9 78.5 57.4 78.6 57.9 78.8 58.4 79 58.9 79.3 59.4 79.6 59.8 79.9 60.2 80.3 60.6 80.3 60.7 80.6 60.6 80.6 60.6 81.2 60.1 82.1 60.1 82.5 59.3L82.6 59.2C83.3 59.8 82.9 60.5 82.8 61.1 81.3 67.1 77.7 71.7 73.3 75.8 68.8 79.8 63.6 82.4 57.7 83.7 57.2 83.8 56.7 83.7 56.2 83.6 56.5 83.4 56.8 83.2 57.2 82.9 56.9 82.8 56.7 82.8 56.5 82.8 57 82.5 57.4 82.1 57.8 81.8 57.6 81.8 57.4 81.7 57.1 81.7 57.7 81.4 58.6 81.9 58.5 80.9 59.8 80.8 60.1 80.6 60.6 80L60.3 79.4C62 79.7 62.5 78.2 63.5 77.4 63.9 77.1 64.4 76.7 64.3 76.1 64.3 76 64.5 75.7 64.7 75.6 65.4 75.2 66.3 74.8 66.9 74.4 67.4 74 67.9 73.5 68.2 72.9S68.6 71.5 68.9 70.8C69.2 70.2 69.6 69.7 70.1 69.2 71 68.3 71.1 67.9 70.9 67.1 70.4 66.8 70.1 66.5 69.7 66.4 69.2 66.2 68.7 66.2 68.2 66.1 67.7 66.1 67.3 66 66.9 65.8 66.2 65.5 65.5 65.4 64.7 65.2 64.6 65.3 64.4 65.5 64.2 65.6 64.2 65.5 64.1 65.5 64.1 65.5 64.3 65.1 65 65 64.6 64.3 64.1 63.3 63.5 62.4 62.3 62.4 61.5 62.4 61 62.2 60.5 61.7 60.3 61.4 59.9 61.4 59.6 61.1 59.2 60.8 58.9 60.5 58.6 60.1 57.8 60.2 56.9 60.2 56.1 60.3 55.6 60 55.2 59.7 54.9 59.4 54.6 59.6 54.4 59.8 54.1 60.1L53.9 59.9C54 59.7 54.1 59.6 54.3 59.4L54.2 59.3C53 59.7 51.7 60.1 51.1 61.5 50.5 60.7 49.9 60.7 49.1 61 48.4 61.3 47.4 60.3 47.6 59.5 47.7 59.2 47.8 58.9 47.8 58.6 48.1 57.8 47.9 57.5 47 57.4 46.4 57.3 45.7 57.4 44.9 57.4 45.3 56.4 45.7 55.5 46 54.6 46.1 54.3 46.2 54.1 45.7 54.1S44.7 54.2 44.2 54.3C44.1 54.3 43.9 54.6 43.9 54.8 43.7 55.4 43.4 55.8 42.7 55.8 42 55.9 41.5 56 41 55.4S40.2 54 40.3 53.2C40.4 52.3 40.5 51.5 40.7 50.6 40.8 50.3 41.2 50 41.6 49.7 42.2 49.3 42.8 49 43.5 49.2 44 49.4 44.5 49.5 45.1 49.7 44.8 48.9 44.9 48.7 45.7 48.7 46.2 48.7 46.8 48.5 47.2 49.1H47.5C48.1 49 48.4 49.4 48.5 50S48.8 51.2 49.1 51.8C49.3 52.1 49.5 52.1 49.7 51.7 50.1 51 49.8 50.4 49.6 49.7 49.3 48.2 49.3 48 50.6 47.2 51.2 46.8 51.8 46.4 52.4 45.9 52.7 45.6 52.8 45.2 52.8 44.7 52.7 44.4 52.8 44.1 52.9 43.8 52.9 44 52.9 44.1 53 44.4 53.5 43.6 53.9 42.8 54.4 42.1 55 41.9 55.7 41.7 56.4 41.4 56 40.9 56.1 40.3 56.6 40.1 57.4 39.7 58.3 39.4 59.1 39.2 58.8 39.6 58.1 39.8 58.7 40.3 59.7 39.9 60.7 39.4 61.7 39L61.4 38.4C61.1 38.6 60.8 39 60.5 38.9 60.2 38.9 59.7 38.6 59.5 38.3 59.3 37.9 59.5 37.4 59.6 37 58.9 36.2 58.1 36.9 57.3 37.1 58.3 36.4 59.3 35.6 60.6 36.1 61.3 36.3 62 36.4 62.6 35.7 62.7 35.6 63.1 35.6 63.4 35.6 62.9 36.4 62.3 37.2 61.7 38 62.4 38.3 63.1 37.9 63.4 38.5 63.9 38.7 64.2 38.8 64.6 39 64.8 38.6 64.9 38.3 64.5 38.2V37.4C64 37.1 63.6 36.9 63.1 36.7 63.3 36.4 63.5 36.1 63.8 35.8 63.7 35.6 63.6 35.6 63.4 35.6M81.7 39.6C81 38.1 80.4 36.7 79.8 35.3 79.7 35.3 79.6 35.3 79.5 35.4 79.6 36 79.8 36.5 79.9 37 79.8 36.9 79.7 36.8 79.3 36.6V38.1C79.3 38.3 79.4 38.5 79.5 38.6S79.8 38.6 79.9 38.5 80.1 38.3 80.3 38.2C80.4 38.7 80.5 39.2 80.5 39.6 80.9 39.5 81.2 39.5 81.7 39.6M46.6 54.2C47.1 54 47.6 53.9 48 53.7 48.8 54 49.7 54.4 50.6 54.8 50.5 55 50.5 55.2 50.4 55.4 51.1 55.3 51.6 55.3 52.4 55.2L51.9 54.7C51 54.3 50.1 53.7 49.2 53.4 48.3 53 47.2 53.1 46.6 54.2M48.9 16.7L49.3 16.3C48.4 16.4 47.6 16.6 46.7 16.7 47.4 17.2 47.9 18 48.8 17.7 49.6 17.4 50.4 18 51.1 17.4 50.9 17.2 50.8 17.1 50.6 17 50.5 16.9 50.3 16.9 50.2 16.9 49.7 17.6 49.3 17.1 48.9 16.7M53.2 55.8C52.8 55.9 52.5 55.9 52.2 55.9 52.7 56.4 54.2 56.4 55.6 55.9 54.9 55.3 53.2 54.8 53 55.2 53 55.4 53.1 55.6 53.2 55.8M74.5 29.3L74.4 29.4C74.6 29.5 74.8 29.6 74.8 29.8 74.8 30.4 75.1 30.7 75.5 31S76.4 31.4 76.7 31C76.8 30.9 76.5 30.4 76.3 30.1 76.3 30 76.2 30 76.1 30 75.6 29.7 75.1 29.5 74.5 29.3M51.8 17.2C52 17.4 52.2 17.9 52.4 17.9 52.8 17.9 53.3 17.7 53.7 17.6 53.7 17.5 53.7 17.4 53.6 17.3 53.1 17.3 52.5 17.2 51.8 17.2M57.1 23.5C57.2 23.6 57.2 23.7 57.3 23.9 57.6 23.8 57.8 23.7 58.1 23.5 58 23.4 57.9 23.1 57.9 23.1 57.6 23.2 57.3 23.4 57.1 23.5" fill="#007bff" data-fill-palette-color="accent"></path><path d="M27.6 25C26.9 25.6 26.2 26.1 25.5 26.7 25 27.1 24.6 27.7 24.6 28.4 24.6 28.6 24.7 28.7 24.7 28.9H24.9C24.3 29.5 23.7 30.2 23.1 30.8L23.2 30.9C23.6 30.6 24 30.2 24.4 29.9 25.1 29.4 25.8 28.8 26.2 28 26.3 27.9 26.5 27.6 26.9 27.8 27.2 27.9 27.9 27.4 28.1 27.1 28.4 26.6 28.6 26.8 28.8 27 28.9 27.1 29 27.2 29.1 27.2 29.7 27.2 29.9 27.6 30.1 28.1 30.1 28.2 30.3 28.3 30.4 28.4 29.6 29.1 30.3 30.1 30.3 31 30.4 30.9 30.5 30.7 30.7 30.6H30.8L30.5 32.1H30.8V34.3C30.7 34.3 30.5 34.2 30.2 34 30.3 34.3 30.2 34.6 30.4 34.7 31.2 35.5 30.9 36.5 30.7 37.4 30.5 38.1 30.1 38.8 29.9 39.5 29.5 40.8 29 42.1 29.5 43.5 29.7 44.1 29.7 44.7 29.8 45.3 29.9 45.6 30.1 45.8 30.3 46 30.7 46.3 31 46.6 31.1 47.2 31.3 48 31.6 48.7 31.9 49.4 32 49.6 32.1 49.9 32 50 31.5 50.5 31.9 50.6 32.2 50.9S32.9 51.4 32.8 51.9C32.8 52 32.9 52.2 32.9 52.2 33.2 52.5 33.5 52.9 33.9 53.3 33.9 53 34 52.8 33.9 52.7 33.2 51.7 33.1 50.4 32.5 49.3 32.2 48.8 31.9 48.4 32.2 47.6 32.4 47.9 32.6 48.1 32.7 48.4L33.9 50.8C34.4 51.6 34.9 52.3 35.4 53.1 35.7 53.6 35.9 54.1 35.7 54.7 35.6 54.9 35.8 55.3 36 55.4 36.7 55.9 37.3 56.3 38.1 56.7 38.7 57 39.3 57.2 40 57.5 40.2 57.6 40.4 57.6 40.5 57.5 41.1 57.1 41.5 57.4 41.9 57.8 42.6 58.6 43.5 58.7 44.4 59 44.9 59.1 45.6 59.9 45.7 60.4 45.7 60.5 45.9 60.7 46 60.8 46.3 61 46.5 61.3 46.8 61.4 47.4 61.7 48 61.8 48.6 62 48.6 62 48.7 61.7 48.8 61.6 48.9 61.4 49.1 61.3 49.3 61.2 49.4 61.4 49.6 61.5 49.6 61.7 49.8 62.1 50 62.6 50.1 63.1 50.3 64.2 49.6 64.8 48.8 65.4 48.4 65.7 48.4 66.5 48.2 67 48.2 67 48.5 67.2 48.8 67.3 48.2 67.7 47.7 68.1 48 68.7 48.5 69.2 48.9 69.5 49.2 69.9 49.7 70.7 50.1 71.6 50.7 72.4 51.1 72.9 51.7 73.2 52.2 73.5 53.9 74.3 53.8 74.4 53.7 76.2 53.6 77.3 53.6 78.5 53.5 79.6 53.5 79.8 53.5 80.1 53.4 80.2 52.8 81 53 81.9 52.9 82.9 53.1 82.7 53.3 82.6 53.4 82.4 53.5 82.4 53.5 82.5 53.6 82.5 53.4 82.8 53.2 83.1 52.9 83.6 53.2 83.8 53.7 84.2 54.1 84.5 51.7 84.8 49.2 84.9 46.7 84.7 41.4 84.2 36.4 82.6 31.8 79.8 22.9 74.2 17.4 66.2 15.7 55.8 14 45.2 16.8 35.7 23.9 27.6 24.5 26.9 25.1 26.3 25.7 25.6 26.5 25.2 26.9 24.6 27.6 25" fill="#007bff" data-fill-palette-color="accent"></path></svg></g></svg></g><g></g></svg></g></svg></g></svg></g><defs></defs></svg><rect width="320" height="360" fill="none" stroke="none" visibility="hidden"></rect></g></svg></g></svg>